<svg width="169" height="44" viewBox="0 0 169 44" fill="none" xmlns="http://www.w3.org/2000/svg">
<path fill-rule="evenodd" clip-rule="evenodd" d="M40.2934 33.7167C36.4202 39.5155 29.8162 43.3455 22.3169 43.3455C10.3899 43.3455 0.722168 33.6737 0.722168 21.7435C0.722168 9.82048 10.3903 0.152344 22.3173 0.152344C31.0262 0.152344 38.5414 5.31064 41.9562 12.7392L38.2671 16.6016C36.0957 9.8623 29.7789 4.98922 22.3176 4.98922C13.0605 4.98922 5.56852 12.49 5.56852 21.7431C5.56852 31.0013 13.0604 38.497 22.3176 38.497C29.36 38.497 35.3828 34.1619 37.8609 28.0092H53.3248C55.2144 28.0092 56.7612 26.477 56.7612 24.5873C56.7612 22.6958 55.2145 21.1598 53.3248 21.1598H45.9105L50.1898 16.8751H53.3249C57.5806 16.8751 61.0405 20.3331 61.0405 24.5872C61.0405 26.7767 60.1254 28.7493 58.6599 30.1571C60.1255 31.5579 61.0405 33.5377 61.0405 35.727C61.0405 39.9812 57.6331 43.3455 53.3827 43.3455H40.2934V33.7167ZM53.3242 32.2945L44.405 32.3994V39.1493H53.3242C55.2138 39.1493 56.7606 37.6188 56.7606 35.7273C56.7606 33.8304 55.2139 32.2945 53.3242 32.2945Z" fill="#687076"/>
<path d="M53.3848 9.77231L35.6941 28.1493L30.2172 28.1496L53.4155 3.86527V9.74161L53.3848 9.77231Z" fill="#687076"/>
<path d="M111.49 32.8473H114.597L108.906 37.8142L114.873 43.1872H111.868L107.702 39.4583V43.1872H105.61V29.1907H107.702V36.1466L111.49 32.8473Z" fill="#687076"/>
<path d="M99.9427 32.6062C100.737 32.6062 101.448 32.8192 102.063 33.2126C102.682 33.6223 103.15 34.1762 103.442 34.8621C103.729 35.53 103.868 36.5172 103.868 37.8817V43.1881H101.796V38.241C101.796 36.927 101.728 36.3856 101.672 36.1563C101.542 35.6094 101.327 35.2322 101 34.9778C100.674 34.716 100.25 34.5897 99.7063 34.5897C99.0601 34.5897 98.4954 34.7973 97.9899 35.225C97.4719 35.6546 97.1434 36.178 96.9792 36.8169C96.8763 37.2447 96.8221 38.075 96.8221 39.2842V43.1881H94.7375V32.848H96.8221V33.8588C97.1289 33.5646 97.4576 33.3299 97.8076 33.1476C98.4554 32.7904 99.1774 32.6062 99.9427 32.6062Z" fill="#687076"/>
<path fill-rule="evenodd" clip-rule="evenodd" d="M89.7581 33.1549C90.1246 33.3426 90.4708 33.5917 90.7978 33.8787V32.8465H92.8553V43.1881H90.7978V42.1828C90.4458 42.4824 90.0722 42.7332 89.686 42.9119C89.0002 43.2621 88.2313 43.4335 87.4137 43.4335C85.9536 43.4335 84.7046 42.8993 83.6668 41.8471C82.6399 40.7895 82.1255 39.5008 82.1255 37.9973C82.1255 36.5156 82.6489 35.2341 83.6867 34.1873C84.7244 33.1387 85.9932 32.6062 87.4552 32.6062C88.2927 32.6062 89.0723 32.7886 89.7581 33.1549ZM89.2241 41.0133C89.7583 40.7119 90.1553 40.313 90.4424 39.8041C90.7273 39.2933 90.8735 38.7158 90.8735 38.0714C90.8735 37.086 90.5558 36.281 89.8989 35.6205C89.26 34.9581 88.4965 34.6476 87.5435 34.6476C86.9407 34.6476 86.3957 34.7884 85.8813 35.0934C85.3742 35.3804 84.9646 35.7991 84.6576 36.3297C84.3619 36.8712 84.2084 37.4433 84.2084 38.0389C84.2084 38.6237 84.3619 39.2012 84.6704 39.7373C84.9754 40.2859 85.3868 40.7119 85.8887 41.0133C86.4103 41.3093 86.9445 41.4627 87.5402 41.4627C88.1321 41.4627 88.697 41.3057 89.2241 41.0133Z" fill="#687076"/>
<path fill-rule="evenodd" clip-rule="evenodd" d="M78.8708 35.6743C79.2371 35.8439 79.5438 36.0334 79.7858 36.2464C80.1901 36.5839 80.5148 37.0107 80.7333 37.5034C80.9604 37.9871 81.0796 38.5159 81.0796 39.0917C81.0796 40.2251 80.6483 41.2159 79.8072 42.0119C78.977 42.7951 77.8616 43.1886 76.4954 43.1886H72.5409V29.5108H75.4919C76.5821 29.5108 77.4086 29.6423 78.0133 29.9186C78.6359 30.1856 79.1395 30.6134 79.495 31.1855C79.8562 31.7523 80.0419 32.3858 80.0419 33.0879C80.0419 33.7232 79.8797 34.3296 79.562 34.862C79.3798 35.1617 79.1506 35.4306 78.8708 35.6743ZM77.705 40.8362C78.0585 40.6882 78.342 40.4518 78.5569 40.1341C78.7738 39.8129 78.8838 39.479 78.8838 39.1054C78.8838 38.6415 78.7324 38.2481 78.429 37.9052C78.1204 37.546 77.6926 37.3059 77.1223 37.167C76.727 37.064 75.9979 37.0226 74.9511 37.0226H74.662V41.0709H75.8099C76.6853 41.0709 77.3223 40.9933 77.705 40.8362ZM75.7089 31.626H74.662L74.6618 34.871H74.9581C75.7936 34.871 76.3963 34.7971 76.7647 34.6562C77.0953 34.5227 77.3567 34.3115 77.5516 34.03C77.7537 33.7412 77.8458 33.4361 77.8458 33.0878C77.8458 32.6276 77.6923 32.2829 77.3874 32.0374C77.0535 31.7687 76.4976 31.626 75.7089 31.626Z" fill="#687076"/>
<path d="M84.8948 23.7611L84.6277 24.1003C83.9492 24.9649 83.0899 25.6468 82.0774 26.1144C81.0738 26.5853 79.9367 26.8201 78.6968 26.8201C76.3344 26.8201 74.4357 26.0206 73.064 24.4395C71.9179 23.0949 71.335 21.4633 71.335 19.5863C71.335 17.5992 72.0353 15.908 73.4322 14.5472C74.8257 13.1935 76.5926 12.5004 78.6844 12.5004C79.937 12.5004 81.0957 12.7604 82.1118 13.2566C83.128 13.762 83.9817 14.475 84.6404 15.381L84.886 15.7238L83.1949 17.0089L82.9422 16.6768C82.4259 16.0001 81.8069 15.4927 81.0813 15.15C80.3631 14.8053 79.5617 14.6283 78.6971 14.6283C77.7532 14.6283 76.8778 14.8537 76.0693 15.3106C75.268 15.7618 74.64 16.3682 74.1995 17.1263C73.7625 17.8789 73.5425 18.7452 73.5425 19.7C73.5425 21.1566 74.0244 22.3297 75.0099 23.3061C76.0134 24.2878 77.2461 24.7518 78.773 24.7518C80.4533 24.7518 81.8214 24.1146 82.9566 22.7989L83.2109 22.4869L84.8948 23.7611Z" fill="#687076"/>
<path fill-rule="evenodd" clip-rule="evenodd" d="M165.184 23.9477C165.471 23.7023 165.791 23.2854 166.13 22.7024L166.342 22.3574L168.102 23.285L167.913 23.6641C167.553 24.3663 167.136 24.9475 166.654 25.386C166.18 25.8245 165.628 26.1672 165.027 26.3985C164.427 26.6328 163.74 26.7484 163.005 26.7484C161.33 26.7484 160.005 26.1854 159.049 25.0807C158.114 23.9888 157.639 22.738 157.639 21.3628C157.639 20.0561 158.045 18.8865 158.843 17.8704C159.852 16.5817 161.234 15.914 162.935 15.914C164.682 15.914 166.091 16.5872 167.136 17.921C167.882 18.854 168.265 20.0363 168.275 21.4187L168.28 21.8556H159.786C159.869 22.657 160.174 23.3068 160.69 23.8464C161.286 24.4653 162.01 24.7651 162.898 24.7651C163.327 24.7651 163.739 24.695 164.15 24.5379C164.562 24.3933 164.907 24.1933 165.184 23.9477ZM162.954 17.9395C162.128 17.9395 161.44 18.1994 160.842 18.7354C160.523 19.017 160.261 19.4212 160.044 19.941H165.923C165.797 19.5979 165.632 19.3094 165.45 19.0873C165.185 18.7443 164.824 18.4685 164.38 18.2644C163.932 18.0587 163.44 17.9395 162.954 17.9395Z" fill="#687076"/>
<path d="M156.418 26.4987H154.336V12.5023H156.418V26.4987Z" fill="#687076"/>
<path fill-rule="evenodd" clip-rule="evenodd" d="M149.544 16.4638C149.91 16.6606 150.254 16.9025 150.578 17.2002L150.578 16.1643H152.646V26.4987H150.578V25.4971C150.231 25.7929 149.858 26.04 149.475 26.2334C148.784 26.5728 148.017 26.7478 147.201 26.7478C145.739 26.7478 144.479 26.2172 143.45 25.1614C142.425 24.0983 141.904 22.8096 141.904 21.3026C141.904 19.8299 142.429 18.5538 143.467 17.5016C144.504 16.4439 145.77 15.9151 147.231 15.9151C148.076 15.9151 148.854 16.1011 149.544 16.4638ZM149.011 24.3184C149.543 24.0225 149.929 23.6255 150.218 23.12C150.51 22.6092 150.657 22.0245 150.657 21.382C150.657 20.3966 150.339 19.5916 149.686 18.9328C149.043 18.2774 148.271 17.9546 147.331 17.9546C146.73 17.9546 146.168 18.1025 145.663 18.4023C145.158 18.693 144.744 19.1152 144.445 19.6404C144.147 20.1801 144.001 20.7522 144.001 21.3461C144.001 21.9398 144.152 22.5102 144.453 23.057C144.757 23.5967 145.168 24.0263 145.679 24.3241C146.188 24.6198 146.729 24.7661 147.318 24.7661C147.924 24.7661 148.473 24.6197 149.011 24.3184Z" fill="#687076"/>
<path fill-rule="evenodd" clip-rule="evenodd" d="M137.337 16.4639C137.7 16.6607 138.048 16.9026 138.369 17.2003L138.369 12.5H140.432V26.4989H138.369V25.4972C138.026 25.7931 137.654 26.0402 137.265 26.2336C136.572 26.5729 135.815 26.7479 134.996 26.7479C133.538 26.7479 132.28 26.2173 131.242 25.1615C130.219 24.0983 129.701 22.8097 129.701 21.3027C129.701 19.83 130.224 18.5539 131.264 17.5017C132.298 16.444 133.568 15.9153 135.025 15.9153C135.868 15.9153 136.655 16.1012 137.337 16.4639ZM136.808 24.3185C137.335 24.0225 137.735 23.6255 138.012 23.12C138.304 22.6039 138.443 22.0391 138.443 21.3821C138.443 20.3967 138.129 19.5918 137.485 18.9329C136.84 18.2776 136.068 17.9547 135.124 17.9547C134.523 17.9547 133.971 18.1026 133.461 18.4024C132.954 18.693 132.541 19.1154 132.238 19.6405C131.942 20.1801 131.787 20.7523 131.787 21.3461C131.787 21.9398 131.946 22.5102 132.247 23.057C132.559 23.5967 132.965 24.0263 133.467 24.3241C133.976 24.6126 134.53 24.7661 135.111 24.7661C135.711 24.7661 136.27 24.6198 136.808 24.3185Z" fill="#687076"/>
<path d="M127.298 18.7449C126.734 18.1997 126.184 17.9219 125.688 17.9219C125.401 17.9219 125.164 18.0083 124.964 18.1996C124.77 18.3767 124.687 18.566 124.687 18.7952C124.687 19.0043 124.761 19.1993 124.929 19.3998C125.066 19.5676 125.411 19.8545 126.254 20.2986C127.23 20.8004 127.891 21.2911 128.256 21.7822C128.631 22.3038 128.817 22.8868 128.817 23.5257C128.817 24.4191 128.501 25.1898 127.871 25.8107C127.243 26.4371 126.452 26.7492 125.521 26.7492C124.909 26.7492 124.321 26.6141 123.767 26.345C123.218 26.0778 122.745 25.706 122.386 25.2368L122.168 24.9519L123.491 23.4538L123.821 23.8186C124.357 24.4287 124.902 24.7229 125.473 24.7229C125.852 24.7229 126.164 24.6129 126.429 24.3673C126.677 24.1381 126.801 23.8837 126.801 23.5804C126.801 23.3329 126.722 23.1201 126.561 22.918C126.453 22.8007 126.137 22.5175 125.157 22.0192C124.231 21.5355 123.617 21.0734 123.262 20.5807C122.904 20.079 122.715 19.4978 122.715 18.8535C122.715 18.0196 123.013 17.3121 123.585 16.7544C124.161 16.1966 124.892 15.9152 125.744 15.9152C126.734 15.9152 127.709 16.3881 128.676 17.3212L128.994 17.6153L127.603 19.0412L127.298 18.7449Z" fill="#687076"/>
<path fill-rule="evenodd" clip-rule="evenodd" d="M112.332 17.8716C113.348 16.5812 114.727 15.9151 116.429 15.9151C118.171 15.9151 119.586 16.587 120.631 17.9226C121.372 18.8539 121.763 20.0361 121.773 21.4186V21.8571H113.279C113.37 22.6567 113.673 23.3082 114.182 23.8478C114.783 24.4652 115.508 24.7665 116.389 24.7665C116.824 24.7665 117.243 24.6959 117.645 24.5373C118.055 24.3929 118.398 24.1945 118.68 23.9489C118.967 23.7016 119.282 23.2847 119.622 22.7036L119.84 22.3588L121.598 23.2846L121.405 23.6653C121.053 24.3674 120.627 24.9467 120.147 25.3871C119.676 25.8239 119.129 26.1687 118.523 26.3979C117.915 26.6342 117.238 26.7478 116.496 26.7478C114.823 26.7478 113.496 26.1865 112.545 25.0801C111.61 23.99 111.136 22.7392 111.136 21.3639C111.136 20.0591 111.533 18.8913 112.332 17.8716ZM114.337 18.7362C114.021 19.0177 113.749 19.4202 113.545 19.9418H119.418C119.288 19.5987 119.136 19.3102 118.947 19.0881C118.68 18.745 118.321 18.4693 117.873 18.2652C117.426 18.0595 116.942 17.9403 116.447 17.9403C115.619 17.9403 114.935 18.2002 114.337 18.7362Z" fill="#687076"/>
<path fill-rule="evenodd" clip-rule="evenodd" d="M107.625 26.4986V25.4987C107.28 25.7948 106.906 26.042 106.52 26.2333C105.825 26.5725 105.062 26.7495 104.244 26.7495C102.791 26.7495 101.533 26.217 100.495 25.1631C99.4703 24.0982 98.9523 22.8095 98.9523 21.3026C98.9523 19.8316 99.4775 18.5537 100.51 17.5015C101.555 16.4457 102.818 15.9151 104.282 15.9151C105.123 15.9151 105.903 16.101 106.592 16.4637C106.955 16.6605 107.307 16.9021 107.625 17.2019V12.5021H109.686V26.4986H107.625ZM102.719 24.3237C103.239 24.6195 103.775 24.7658 104.365 24.7658C104.959 24.7658 105.524 24.6145 106.056 24.3203C106.589 24.0225 106.99 23.627 107.264 23.12C107.553 22.6093 107.704 22.0263 107.704 21.382C107.704 20.3965 107.383 19.5916 106.737 18.9346C106.094 18.2777 105.324 17.9564 104.378 17.9564C103.77 17.9564 103.225 18.1022 102.71 18.402C102.203 18.6926 101.795 19.1149 101.488 19.6401C101.194 20.1816 101.039 20.7519 101.039 21.3475C101.039 21.9395 101.198 22.5099 101.505 23.0567C101.803 23.5964 102.216 24.026 102.719 24.3237Z" fill="#687076"/>
<path d="M94.0224 22.8143L96.9065 16.1654L99.1497 16.1648L93.1127 29.9702H90.889L92.9086 25.3607L88.8225 16.1654H91.0461L94.0224 22.8143Z" fill="#687076"/>
<path d="M86.0409 12.5008H88.1238V26.4973H86.0409V12.5008Z" fill="#687076"/>
</svg>
