<svg width="156" height="32" viewBox="0 0 156 32" fill="none" xmlns="http://www.w3.org/2000/svg">
<path d="M3.47283 26.7599V20.0646C4.12358 19.3528 5.0275 18.9284 5.98779 18.8839C7.77377 18.8839 8.90367 20.4972 8.90367 23.4526C8.90367 26.4079 7.78106 27.9699 5.93676 27.9699C5.46232 27.9492 4.99709 27.8313 4.56962 27.6232C4.14215 27.4151 3.76148 27.1213 3.45096 26.7599H3.47283ZM0.0539551 30.4999H2.61994L2.96984 28.9892C3.43274 29.5551 4.01665 30.0086 4.67804 30.3159C5.33943 30.6232 6.06124 30.7763 6.78966 30.7639C9.96797 30.7639 12.2424 27.8306 12.2424 23.4306C12.2424 18.8839 9.91695 16.0972 6.89171 16.0972C6.23897 16.0765 5.59066 16.2119 5.0001 16.4924C4.40954 16.7729 3.8936 17.1904 3.4947 17.7106V10.9492H0.228908V27.2146C0.228908 27.8892 0.17788 28.9892 0.0685345 30.4999" fill="#687076"/>
<path d="M17.3451 10.9492H14.0283V30.4999H17.3451V10.9492Z" fill="#687076"/>
<path d="M27.0332 23.6432V26.6278C26.6447 27.0659 26.1731 27.4213 25.646 27.6732C25.119 27.9251 24.5471 28.0683 23.9642 28.0945C23.7659 28.1142 23.5657 28.0901 23.3776 28.024C23.1896 27.9579 23.0181 27.8513 22.8751 27.7116C22.7321 27.572 22.6212 27.4027 22.5499 27.2155C22.4787 27.0284 22.4488 26.8278 22.4625 26.6278C22.4625 24.9558 23.9204 24.0685 27.0332 23.6432V23.6432ZM27.4122 30.4998H30.5614C30.442 29.8683 30.3713 29.2284 30.35 28.5858V20.3065C30.35 17.7252 28.5057 16.1412 25.2472 16.1412C24.19 16.0758 23.1347 16.2955 22.1902 16.7777C21.2457 17.2598 20.4464 17.9869 19.8747 18.8838L22.098 20.3065C22.4365 19.8027 22.8942 19.3914 23.4299 19.1098C23.9656 18.8282 24.5626 18.685 25.167 18.6932C26.4573 18.6932 27.1498 19.2872 27.1498 20.3065V21.4065C21.7991 22.0812 19.1821 23.7458 19.1821 26.8918C19.1821 29.2312 20.5672 30.6612 22.9218 30.6612C24.426 30.6622 25.8897 30.1706 27.0915 29.2605L27.4122 30.4998Z" fill="#687076"/>
<path d="M43.6246 27.1925C43.2044 28.2964 42.4462 29.2374 41.4594 29.8794C40.4727 30.5214 39.3087 30.8311 38.1355 30.7638C34.1771 30.7638 32.0923 28.2631 32.0923 23.4305C32.0923 18.8618 34.4177 16.1411 38.1355 16.1411C39.3081 16.0678 40.4718 16.388 41.4441 17.0516C42.4164 17.7152 43.1423 18.6846 43.508 19.8078L40.7306 21.0178C40.2495 19.5951 39.5278 18.8911 38.3542 18.8911C36.3203 18.8911 35.4383 20.4018 35.4383 23.6285C35.4383 26.5618 36.3203 27.9258 38.1646 27.9258C39.4768 27.9258 40.4099 27.2585 41.0805 25.8065L43.6465 27.1778" fill="#687076"/>
<path d="M45.5493 10.9492H48.8078V22.1106L53.1088 16.4052H56.7755L52.6276 21.4066L57.1181 30.4999H53.5097L50.4116 24.0466L48.8078 25.9532V30.4999H45.5493V10.9492Z" fill="#687076"/>
<path d="M59.1663 10.9492H61.098V18.4366C62.6289 16.8452 64.0577 16.1119 65.8582 16.1119C68.2784 16.1119 69.6489 17.5199 69.6489 20.0352V30.4999H67.739V20.7612C67.739 18.7372 67.1193 17.8279 65.3479 17.8279C64.5309 17.8628 63.7303 18.0702 62.9982 18.4366C62.266 18.8029 61.6186 19.3201 61.098 19.9546V30.4999H59.1663V10.9492Z" fill="#687076"/>
<path d="M73.3666 23.4154C73.3666 19.7047 74.7662 17.7907 77.2374 17.7907C79.7086 17.7907 81.0864 19.7047 81.0864 23.4374C81.0864 27.17 79.6868 29.0914 77.2374 29.0914C74.7881 29.0914 73.3666 27.1407 73.3666 23.4154ZM71.3765 23.4154C71.3765 28.116 73.5634 30.7487 77.2082 30.7487C80.8531 30.7487 83.04 28.1234 83.04 23.4154C83.04 18.7074 80.8531 16.082 77.2082 16.082C73.5634 16.082 71.3765 18.678 71.3765 23.4154Z" fill="#687076"/>
<path d="M84.9138 16.3607H86.9039V19.5801C87.8443 17.3067 89.0908 16.1994 90.9643 16.1994C91.1146 16.1848 91.266 16.1848 91.4163 16.1994V18.1427H91.1757C89.2658 18.1427 87.7641 19.6827 86.9039 22.6087V30.4994H84.9138V16.3607" fill="#687076"/>
<path d="M93.4863 26.8186C93.9135 27.5034 94.504 28.0701 95.2042 28.4671C95.9044 28.8641 96.692 29.0789 97.4956 29.0919C99.216 29.0919 100.317 28.1459 100.317 26.7086C100.317 24.8166 98.7276 24.6846 95.9867 23.8486C93.5956 23.1153 92.4366 21.8466 92.4366 19.9766C92.4366 17.6813 94.1861 16.1119 96.6865 16.1119C97.6522 16.0841 98.6111 16.2823 99.4878 16.6908C100.364 17.0993 101.135 17.7069 101.738 18.4659L100.448 19.7639C100.045 19.1577 99.5043 18.6571 98.8703 18.3038C98.2363 17.9504 97.5276 17.7546 96.8031 17.7326C95.3452 17.7326 94.4339 18.5466 94.4339 19.7933C94.4267 20.0791 94.4894 20.3624 94.6165 20.6181C94.7437 20.8738 94.9313 21.0943 95.1629 21.2599C96.1033 21.9346 97.4227 22.0959 98.9025 22.5799C101.235 23.3133 102.314 24.5306 102.314 26.5033C102.314 29.0186 100.404 30.7493 97.2915 30.7493C96.2491 30.7853 95.2139 30.5619 94.278 30.0988C93.342 29.6357 92.5342 28.9473 91.9263 28.0946L93.4863 26.8479" fill="#687076"/>
<path d="M105.434 22.1393C105.544 19.3306 106.834 17.7906 108.904 17.7906C110.974 17.7906 112.236 19.36 112.287 22.1393H105.434V22.1393ZM113.227 26.5393C112.877 27.3077 112.312 27.9569 111.602 28.4076C110.891 28.8582 110.065 29.0907 109.225 29.0766C106.965 29.0766 105.405 27.2946 105.405 24.2953V23.8333H114.357V23.2393C114.357 18.6706 112.287 16.126 108.875 16.126C105.463 16.126 103.393 18.7733 103.393 23.4593C103.393 28.27 105.405 30.7926 109.035 30.7926C111.725 30.7926 113.555 29.7366 114.656 27.4633L113.227 26.5393Z" fill="#687076"/>
<path d="M139.127 0.26474C138.996 0.646073 139.193 1.04207 139.127 1.37207C138.909 1.22541 138.398 0.338073 138.26 0.99074C138.209 1.29141 138.69 1.68007 138.675 1.95141C138.675 2.36941 138.318 2.64074 137.946 3.05141C137.824 3.14902 137.736 3.28369 137.695 3.43554C137.654 3.58739 137.663 3.74838 137.72 3.89474C137.582 4.43741 136.926 4.99474 136.758 5.58874C136.503 6.32207 135.898 6.48341 135.891 7.18007C135.978 8.48541 136.394 8.29474 137.101 8.59541C137.186 8.64787 137.285 8.67561 137.385 8.67561C137.485 8.67561 137.584 8.64787 137.669 8.59541C138.1 8.49274 138.019 7.96474 138.209 7.78874L138.661 7.42207C138.661 7.42207 140.119 6.32207 140.119 7.26807C139.915 9.84941 137.247 12.5554 134.6 13.0614C133.004 13.3107 131.83 12.7607 130.132 12.7241C129.1 12.7327 128.09 13.0298 127.216 13.5821C126.997 13.7581 126.487 13.5821 126.487 13.5381C125.86 13.4281 124.723 12.0714 124.599 11.8514C124.282 11.3614 123.832 10.9738 123.301 10.7351C122.771 10.4965 122.183 10.4169 121.609 10.5059C121.035 10.595 120.498 10.8489 120.064 11.2371C119.63 11.6254 119.316 12.1315 119.161 12.6947C118.432 15.1147 119.934 17.0067 121.727 18.2021C122.12 18.5981 122.033 19.1847 121.37 19.5734C120.488 20.1161 120.364 20.4461 120.32 20.8787C120.31 21.0532 120.343 21.2275 120.418 21.3854C120.493 21.5432 120.606 21.6794 120.747 21.7812C120.889 21.883 121.053 21.9471 121.226 21.9676C121.398 21.988 121.573 21.9641 121.734 21.8981V21.8981C121.814 21.8506 121.88 21.7822 121.924 21.7001V21.7001C120.641 20.9667 123.382 20.5634 123.666 20.1381C123.875 19.9584 124.041 19.7326 124.149 19.4783C124.258 19.224 124.307 18.9479 124.293 18.6714C124.293 16.7647 122.106 16.6327 121.902 14.9314C121.902 14.7334 121.902 14.5501 122.113 14.4914C122.164 14.4914 122.223 14.5354 122.274 14.6454C122.412 14.9314 122.587 14.9387 122.587 14.9387C122.674 14.5574 123.192 13.8241 123.761 13.8681C123.899 13.8681 123.826 13.9854 123.826 13.9854C123.491 14.2421 123.433 15.0121 123.826 15.1441C123.921 14.9417 124.085 14.7802 124.289 14.6887C124.492 14.5973 124.721 14.5819 124.934 14.6454C125.248 14.7774 125.547 14.6894 125.831 14.7701C125.889 14.9534 125.576 15.2027 125.466 15.4521C124.737 16.5374 124.942 18.4587 125.146 19.7054C125.014 20.9301 124.256 21.6414 123.287 22.3601C122.456 23.0421 122.711 23.3721 122.784 24.2741C122.864 25.211 122.864 26.1531 122.784 27.0901C122.784 27.3981 122.682 28.3294 122.66 28.5934C122.616 29.1581 122.288 29.7447 122.828 30.1554C123.367 30.5661 123.476 30.5221 123.557 31.2774C123.533 31.5064 123.574 31.7374 123.673 31.9447H125.911C126.013 31.2994 125.328 30.7641 124.81 30.4194C123.243 29.2974 124.147 26.5327 124.191 25.0367C124.24 24.6809 124.38 24.344 124.597 24.0587C124.815 23.7734 125.101 23.5495 125.43 23.4087C126.269 23.3007 127.066 22.9803 127.748 22.4774C127.742 22.6761 127.697 22.8717 127.616 23.0529C127.535 23.2341 127.418 23.3974 127.274 23.5334C126.545 24.2667 126.83 25.2127 127.58 25.8361C128.018 26.2981 128.222 26.6501 128.565 27.0534C129.078 27.6836 129.553 28.3448 129.986 29.0334C130.329 29.4807 130.139 29.7667 130.351 30.1921C130.562 30.6174 131.08 30.5661 131.218 30.9254C131.313 31.0574 131.378 31.8201 131.495 31.9521H133.682C133.748 30.6541 132.508 30.6027 131.772 29.7081C130.81 28.5714 130.905 28.2414 129.884 26.9581C129.614 26.6182 129.37 26.2578 129.155 25.8801C128.962 25.5069 128.847 25.0973 128.82 24.6774C128.82 23.6434 129.753 23.7241 130.351 23.2107C131.291 22.3265 131.998 21.2199 132.406 19.9914C133.908 20.0354 136.197 20.5561 137.75 20.3801C139.208 20.3801 140.345 19.6834 141.708 19.3901C142.182 19.4414 142.612 19.6394 143.071 19.3901C144.297 18.8823 145.478 18.2689 146.599 17.5567C147.904 16.6987 148.48 17.5934 149.071 18.5907C149.428 19.4584 149.733 20.3474 149.982 21.2527C149.991 21.3374 150.025 21.4173 150.08 21.4826C150.134 21.5478 150.207 21.5954 150.288 21.6194C150.798 21.7734 150.251 22.2427 150.091 22.5434C149.595 23.1227 150.601 23.8194 150.747 23.9001C151.709 24.6334 152.147 24.0467 152.045 22.8661C152.074 22.1302 151.827 21.4103 151.352 20.8494C150.695 19.7922 150.159 18.6629 149.756 17.4834C149.435 16.8894 149.275 15.9581 148.611 15.5401C148.45 15.4552 148.268 15.4172 148.086 15.4301C147.263 15.4301 145.98 15.5254 145.324 15.5401L145.433 15.4007C146.321 15.1473 147.165 14.7564 147.933 14.2421C148.662 13.7361 149.77 14.5207 150.12 14.7701C150.934 15.438 151.605 16.2634 152.096 17.1974C152.227 17.5934 152.591 17.5274 152.752 17.6007C153.197 17.7621 152.752 18.4001 152.861 18.6787C152.992 19.1774 153.787 19.3461 154.254 19.3681C155.617 19.6027 154.902 18.0994 154.443 17.7181C153.984 17.3367 153.765 16.7867 153.313 16.4274C152.252 15.4109 151.263 14.3204 150.354 13.1641C149.457 12.1301 148.764 12.3134 147.664 12.4307C146.958 12.413 146.253 12.4646 145.557 12.5847C145.416 12.4877 145.305 12.3531 145.236 12.1961C144.996 11.6607 145.557 11.6094 145.834 11.7927C145.855 11.5349 145.82 11.2757 145.732 11.0327C145.644 10.7897 145.504 10.5686 145.324 10.3847C145.12 10.2674 145.003 9.75407 145.418 9.71741C145.648 9.70195 145.87 9.6261 146.062 9.49743C146.254 9.36877 146.409 9.19177 146.512 8.98407C146.512 8.98407 145.513 8.36074 145.331 7.77407C145.667 7.7702 145.99 7.63933 146.235 7.40741C146.429 7.20949 146.55 6.9507 146.577 6.67407C145.885 6.91607 146.126 6.10207 145.207 5.55207C144.971 5.41926 144.785 5.21351 144.675 4.96541C144.828 4.92141 145.331 3.97541 144.974 3.49874C143.516 4.46674 144.186 2.45007 142.393 2.03207C142.311 2.01563 142.236 1.97462 142.177 1.91443C142.119 1.85424 142.08 1.77766 142.065 1.69474C142.053 1.56411 141.996 1.44181 141.904 1.34834C141.813 1.25488 141.692 1.19594 141.562 1.18141C141.642 1.40874 141.38 1.69474 141.001 1.59207C140.852 1.56318 140.718 1.48275 140.622 1.36474C140.463 1.13213 140.228 0.963296 139.958 0.888073C139.492 0.785406 139.587 0.279406 139.31 0.191406C139.251 0.191406 139.208 0.191406 139.171 0.30874" fill="#687076"/>
</svg>
