<svg width="154" height="52" viewBox="0 0 154 52" fill="none" xmlns="http://www.w3.org/2000/svg">
<path d="M99.1143 42.6759C99.1051 42.1603 99.002 41.6516 98.8111 41.1791C98.6202 40.7066 98.3451 40.2793 98.0016 39.9219C97.6581 39.5644 97.2529 39.2837 96.8091 39.0957C96.3653 38.9078 95.8917 38.8163 95.4152 38.8265H90.0892V51.6533H92.5295V40.573H94.4662C94.9733 40.5161 95.4807 40.6778 95.8783 41.023C96.2759 41.3683 96.5317 41.8693 96.5901 42.4174C96.5998 42.5336 96.5998 42.6505 96.5901 42.7667C96.5901 43.9544 96.1769 44.9534 94.5114 44.9534C93.6592 44.9534 93.3171 45.1281 93.2848 45.6521C93.2525 46.176 93.7948 46.4206 94.3371 46.5323C96.7709 47.0284 99.1207 45.4634 99.1207 42.648" fill="#687076"/>
<path d="M149.578 45.7363C150.283 45.562 150.912 45.1311 151.358 44.5156C151.805 43.9001 152.042 43.1374 152.032 42.355C152.032 40.6084 150.74 38.8618 148.287 38.8618H143.019V51.6537H145.453V40.5735H147.39C149.236 40.5735 149.507 41.7681 149.507 42.4737C149.507 43.6614 148.726 44.4089 147.461 44.4089C146.635 44.4089 146.17 44.7513 146.17 45.3311C146.17 45.6665 146.37 46.0857 147.274 46.2394C148.397 46.435 148.843 47.6366 149.417 49.1037C149.417 49.1037 149.908 50.3613 150.063 50.7735C150.125 51.0501 150.28 51.2924 150.496 51.4545C150.712 51.6167 150.976 51.6875 151.238 51.6537H153.142L152.296 49.6976C151.457 47.6855 150.792 46.4909 149.578 45.7363Z" fill="#687076"/>
<path d="M134.905 45.9041H140.612V44.1575H134.905V40.5736H140.902V38.834H132.464V51.6608H141.025V49.9073H134.905V45.9041Z" fill="#687076"/>
<path d="M106.261 49.7531C103.827 49.7531 102.439 48.1043 102.439 45.2399C102.439 42.3756 103.827 40.7268 106.261 40.7268C108.695 40.7268 110.05 42.3756 110.05 45.2399C110.05 48.1043 108.675 49.7531 106.261 49.7531ZM106.261 38.6519C101.871 38.6519 99.9148 41.9634 99.9148 45.2399C99.9148 48.5165 101.852 51.835 106.261 51.835C110.67 51.835 112.581 48.4257 112.581 45.2399C112.581 42.0542 110.644 38.6519 106.261 38.6519" fill="#687076"/>
<path d="M129.94 38.8341C129.823 38.8142 129.703 38.8196 129.587 38.8499C129.472 38.8803 129.363 38.935 129.267 39.0109C129.171 39.0868 129.09 39.1825 129.028 39.2924C128.966 39.4023 128.925 39.5243 128.907 39.6515C128.907 39.6515 128.907 39.6934 128.907 39.7143L126.228 49.083L123.549 38.8341H121.328C121.095 38.7916 120.857 38.8509 120.664 38.9989C120.472 39.1469 120.341 39.3716 120.302 39.6235V39.6235L117.72 49.0899L115.182 38.7852H112.484L115.957 51.626H119.095L121.851 41.5098L124.492 51.626H127.584L131.199 38.7852L129.94 38.8341Z" fill="#687076"/>
<path d="M10.9037 50.7246L10.9747 48.8732C12.0123 49.3898 13.1326 49.684 14.2736 49.7395C14.9643 49.7395 16.8558 49.7395 16.7461 48.0209C16.6299 45.7992 10.936 46.2324 10.936 42.2292C10.936 39.4347 13.6151 38.4985 15.7777 38.4985C16.7102 38.5316 17.6347 38.696 18.5279 38.9876L18.4827 39.8678C18.4694 40.063 18.3866 40.245 18.2517 40.3754C18.1168 40.5057 17.9404 40.5743 17.7596 40.5665H17.6047C17.0103 40.4342 16.4036 40.3779 15.7971 40.3988C15.0934 40.3988 13.4085 40.5455 13.4924 41.9009C13.6151 43.878 19.4317 43.5566 19.4317 47.9929C19.4317 50.6826 16.9979 51.6747 14.4027 51.6747C13.1882 51.633 11.9966 51.3065 10.9101 50.7176" fill="#687076"/>
<path d="M26.6943 40.4264C27.295 40.3845 27.8982 40.4267 28.489 40.5522C28.6602 40.6175 28.8484 40.6072 29.0127 40.5235C29.177 40.4398 29.3043 40.2895 29.3669 40.105C29.3928 40.0242 29.4059 39.9391 29.4057 39.8535L29.4509 38.9803C28.509 38.6682 27.5307 38.5035 26.5458 38.4912C22.1624 38.4912 20.2063 41.8097 20.2063 45.0793C20.2063 48.3489 22.143 51.6744 26.5458 51.6744C27.5316 51.667 28.5108 51.4998 29.4509 51.1783L29.354 49.3549C28.502 49.6831 27.5963 49.8164 26.6943 49.7461C24.2669 49.6623 22.7305 47.9437 22.7305 45.0793C22.7305 42.2149 24.2669 40.4963 26.6943 40.4194" fill="#687076"/>
<path d="M36.0939 49.5994C33.6601 49.5994 32.2721 47.9507 32.2721 45.0863C32.2721 42.2219 33.6601 40.5801 36.0939 40.5801C38.5277 40.5801 39.8834 42.2219 39.8834 45.0863C39.8834 47.9507 38.5018 49.5994 36.0939 49.5994ZM36.0939 38.4912C31.6975 38.4912 29.7415 41.8097 29.7415 45.0863C29.7415 48.3628 31.6782 51.6813 36.0939 51.6813C40.5096 51.6813 42.414 48.272 42.414 45.0863C42.414 41.9005 40.4773 38.4912 36.0939 38.4912" fill="#687076"/>
<path d="M64.5634 38.8267H62.1232V51.6465H64.5634V38.8267Z" fill="#687076"/>
<path d="M51.0388 38.8267H42.2526V40.5732H45.5256V51.6465H47.9594V40.5732H51.0388V38.8267Z" fill="#687076"/>
<path d="M60.6772 38.8267H51.8975V40.5732H55.164V51.6465H57.6043V40.5732H60.6772V38.8267Z" fill="#687076"/>
<path d="M84.9505 38.8267V44.1432H79.3211V38.8267H76.8873V51.6465H79.3211V45.8898H84.9505V51.6465H87.3907V38.8267H84.9505Z" fill="#687076"/>
<path d="M66.7003 50.7246L66.7971 48.8732C67.8347 49.3898 68.955 49.684 70.096 49.7395C70.7867 49.7395 72.6782 49.7395 72.5749 48.0209C72.4523 45.7992 66.7261 46.2324 66.7261 42.2292C66.7261 39.4347 69.3987 38.4985 71.5679 38.4985C72.5003 38.5316 73.4248 38.696 74.318 38.9876L74.2405 39.8678C74.2273 40.063 74.1444 40.245 74.0095 40.3754C73.8746 40.5057 73.6982 40.5743 73.5175 40.5665H73.3625C72.7704 40.4339 72.1658 40.3776 71.5614 40.3988C70.8577 40.3988 69.1728 40.5455 69.2503 41.9009C69.3794 43.878 75.196 43.5566 75.196 47.9929C75.196 50.6826 72.7686 51.6747 70.167 51.6747C68.9525 51.633 67.7609 51.3065 66.6744 50.7176" fill="#687076"/>
<path d="M21.3038 22.5558C21.4007 16.9108 24.5962 14.0185 28.2566 11.2729C27.6885 7.60713 26.8244 4.00236 25.6743 0.5C24.8093 12.209 11.2652 11.4126 11.078 22.5697C11.0996 23.6468 11.3178 24.7087 11.72 25.6943C12.1221 26.6798 12.7004 27.5696 13.4214 28.3125C14.8411 29.7811 16.6832 30.6786 18.6404 30.8553C20.5976 31.0321 22.5516 30.4773 24.1766 29.2836C23.301 28.4318 22.5948 27.396 22.1009 26.2394C21.607 25.0827 21.3358 23.8294 21.3038 22.5558" fill="#687076"/>
<path d="M36.8684 0.5C36.0034 12.209 22.4593 11.4126 22.2721 22.5697C22.2949 23.6473 22.5142 24.7093 22.9175 25.6949C23.3208 26.6804 23.9 27.57 24.622 28.3125C30.5031 34.6001 46.6165 30.9323 36.8878 0.5" fill="#687076"/>
<path d="M12.7306 11.6781C12.1898 11.0874 11.7812 10.3704 11.5363 9.58219C11.5363 9.58219 11.5363 11.6362 12.2142 12.6981C11.4241 14.2508 10.5623 15.7594 9.6319 17.2182C8.80024 15.9319 8.18604 14.4961 7.81785 12.9775C7.76752 14.8996 8.11606 16.8095 8.83785 18.5666C7.90379 20.0564 7.0606 21.6107 6.31367 23.2195C5.12022 21.2219 4.24718 19.0205 3.73139 16.7082C3.73139 16.7082 3.44089 21.5986 5.54544 25.0918C5.06926 26.2954 4.69753 27.5443 4.43506 28.8225C3.70557 28.3614 0.92962 26.2026 0.92962 22.5348C0.92962 17.7212 4.15747 15.1433 7.54671 12.5863C10.4776 10.2808 12.9437 8.21986 14.3446 4.90137C14.2846 7.26292 13.7329 9.57938 12.7306 11.6781V11.6781ZM14.5963 0.5C13.7313 12.209 0.18076 11.4126 0 22.5627C0.0211246 23.641 0.239042 24.7041 0.641217 25.6908C1.04339 26.6776 1.62188 27.5685 2.34342 28.3125C2.92437 28.9274 3.58827 29.4433 4.31241 29.8425C3.80832 32.6924 3.70602 35.6084 4.00899 38.4915L5.65519 38.4007C5.09871 35.743 4.97202 33.0011 5.28076 30.2966C6.54955 30.8158 7.91466 30.9992 9.26224 30.8315C10.6098 30.6637 11.9008 30.1498 13.0276 29.3325L12.7435 29.039C11.9295 28.2 11.278 27.1941 10.8268 26.0798C10.3757 24.9655 10.1341 23.7652 10.1161 22.5488C10.2065 17.1134 13.1825 14.277 16.3846 11.7968L17.1722 11.189C16.601 7.55137 15.7369 3.97473 14.5899 0.5" fill="#687076"/>
</svg>
