<svg width="167" height="36" viewBox="0 0 167 36" fill="none" xmlns="http://www.w3.org/2000/svg">
<path d="M46.5 4.19461V7.16461H50.85V10.1746H46.5V16.1346H42.88V1.22461H51.78V4.19461H46.5Z" fill="#687076"/>
<path d="M61.19 16.4849C59.6548 16.4475 58.1647 15.9584 56.906 15.0787C55.6474 14.199 54.6759 12.9678 54.1132 11.539C53.5505 10.1101 53.4216 8.54714 53.7424 7.0454C54.0633 5.54366 54.8197 4.16983 55.9172 3.0957C57.0146 2.02157 58.4044 1.29481 59.9126 1.00628C61.4209 0.717757 62.9808 0.88028 64.3972 1.47353C65.8136 2.06677 67.0237 3.06442 67.8762 4.34171C68.7286 5.619 69.1856 7.11926 69.19 8.65488C69.1944 9.69876 68.9891 10.7329 68.5865 11.696C68.1839 12.6591 67.592 13.5316 66.846 14.2618C66.0999 14.992 65.2149 15.565 64.2434 15.9468C63.2719 16.3287 62.2336 16.5117 61.19 16.4849V16.4849ZM61.19 4.05488C60.6009 4.06505 60.0197 4.19292 59.4807 4.43096C58.9417 4.66899 58.4557 5.0124 58.0514 5.44099C57.647 5.86957 57.3324 6.37468 57.1261 6.92661C56.9198 7.47853 56.8259 8.06614 56.85 8.65488C56.8218 9.24434 56.9135 9.83341 57.1196 10.3864C57.3257 10.9394 57.6419 11.4447 58.0491 11.8719C58.4563 12.2991 58.9459 12.6391 59.4884 12.8715C60.0309 13.1038 60.6149 13.2236 61.205 13.2236C61.7951 13.2236 62.3791 13.1038 62.9216 12.8715C63.4641 12.6391 63.9538 12.2991 64.3609 11.8719C64.7681 11.4447 65.0843 10.9394 65.2904 10.3864C65.4966 9.83341 65.5883 9.24434 65.56 8.65488C65.58 8.06467 65.4823 7.47639 65.2727 6.92431C65.063 6.37224 64.7455 5.86742 64.3388 5.43927C63.9321 5.01112 63.4442 4.66822 62.9036 4.43054C62.363 4.19286 61.7805 4.06516 61.19 4.05488" fill="#687076"/>
<path d="M79.11 16.4849C77.5748 16.4475 76.0848 15.9584 74.8261 15.0787C73.5674 14.199 72.5959 12.9678 72.0333 11.539C71.4706 10.1101 71.3416 8.54714 71.6624 7.0454C71.9833 5.54366 72.7397 4.16983 73.8372 3.0957C74.9346 2.02157 76.3244 1.29481 77.8327 1.00628C79.3409 0.717757 80.9008 0.88028 82.3172 1.47353C83.7336 2.06677 84.9437 3.06442 85.7962 4.34171C86.6486 5.619 87.1056 7.11926 87.11 8.65488C87.1144 9.69876 86.9092 10.7329 86.5065 11.696C86.1039 12.6591 85.512 13.5316 84.766 14.2618C84.0199 14.992 83.1349 15.565 82.1634 15.9468C81.1919 16.3287 80.1536 16.5117 79.11 16.4849V16.4849ZM79.11 4.05488C78.5204 4.06509 77.9388 4.1929 77.3993 4.43082C76.8598 4.66874 76.3732 5.01198 75.968 5.44042C75.5629 5.86885 75.2473 6.37386 75.0399 6.92584C74.8325 7.47782 74.7373 8.06565 74.76 8.65488C74.7195 9.25228 74.8023 9.85162 75.003 10.4157C75.2038 10.9798 75.5184 11.4966 75.9272 11.9341C76.336 12.3716 76.8304 12.7204 77.3796 12.9588C77.9289 13.1973 78.5213 13.3203 79.12 13.3203C79.7188 13.3203 80.3112 13.1973 80.8604 12.9588C81.4096 12.7204 81.904 12.3716 82.3128 11.9341C82.7217 11.4966 83.0362 10.9798 83.237 10.4157C83.4378 9.85162 83.5205 9.25228 83.48 8.65488C83.5 8.06467 83.4023 7.47639 83.1927 6.92431C82.983 6.37224 82.6656 5.86742 82.2588 5.43927C81.8521 5.01112 81.3642 4.66822 80.8236 4.43054C80.283 4.19286 79.7005 4.06516 79.11 4.05488" fill="#687076"/>
<path d="M94.5 16.1346H89.5V1.22461H94.5C98.8 1.22461 102.5 4.03461 102.5 8.68461C102.5 13.3346 98.81 16.1346 94.5 16.1346V16.1346ZM94.08 4.33461H92.96V13.0246H94.08C96.67 13.0246 98.87 11.5746 98.87 8.68461C98.87 5.79461 96.67 4.33461 94.08 4.33461Z" fill="#687076"/>
<path d="M108.89 16.4848C107.295 16.5438 105.722 16.1033 104.39 15.2248L104.06 11.7448C105.375 12.8308 107.024 13.431 108.73 13.4448C110.07 13.4448 110.81 12.8848 110.81 11.9948C110.81 11.1048 110.3 10.6648 108.45 9.99484C105.86 9.08484 104.45 7.42484 104.45 5.36484C104.47 2.85484 106.39 0.854836 109.63 0.854836C110.907 0.79337 112.175 1.10245 113.28 1.74484L113 4.74484C112.071 4.17886 111.008 3.87158 109.92 3.85484C108.63 3.85484 108.02 4.41484 108.02 5.14484C108.02 5.87484 108.54 6.28484 110.31 6.86484C112.69 7.66484 114.45 9.32484 114.45 11.6548C114.45 14.5748 112.56 16.4948 108.89 16.4948" fill="#687076"/>
<path d="M52.81 22.0447C51.6136 21.3644 50.2561 21.0189 48.88 21.0447C47.1985 21.0447 45.5859 21.7127 44.397 22.9017C43.208 24.0906 42.54 25.7032 42.54 27.3847C42.54 29.0662 43.208 30.6788 44.397 31.8678C45.5859 33.0568 47.1985 33.7247 48.88 33.7247C50.3486 33.7844 51.8052 33.4385 53.09 32.7247L52.72 34.3147C51.476 34.9152 50.0989 35.1872 48.72 35.1047C46.6752 35.1047 44.7141 34.2924 43.2682 32.8465C41.8223 31.4006 41.01 29.4395 41.01 27.3947C41.01 25.3499 41.8223 23.3888 43.2682 21.9429C44.7141 20.497 46.6752 19.6847 48.72 19.6847C50.2459 19.6256 51.7603 19.9706 53.11 20.6847L52.81 22.0447Z" fill="#687076"/>
<path d="M62.48 35.0748C60.9599 35.057 59.479 34.5903 58.2234 33.7333C56.9679 32.8762 55.9937 31.6672 55.4233 30.258C54.8529 28.8489 54.7119 27.3026 55.0178 25.8135C55.3238 24.3244 56.0631 22.959 57.1429 21.889C58.2226 20.8189 59.5947 20.0919 61.0864 19.7994C62.5782 19.5068 64.1232 19.6618 65.5271 20.2449C66.931 20.8279 68.1313 21.813 68.9769 23.0763C69.8226 24.3395 70.276 25.8246 70.28 27.3448C70.2909 28.3688 70.0961 29.3847 69.7071 30.332C69.3181 31.2794 68.7428 32.139 68.0154 32.8599C67.288 33.5808 66.4232 34.1483 65.4723 34.5288C64.5215 34.9092 63.504 35.0949 62.48 35.0748V35.0748ZM62.48 21.0148C61.6524 21.0077 60.8318 21.1675 60.0673 21.4847C59.3028 21.8018 58.61 22.2698 58.0304 22.8606C57.4508 23.4515 56.9962 24.153 56.6937 24.9235C56.3912 25.6939 56.2472 26.5174 56.27 27.3448C56.27 28.1603 56.4306 28.9678 56.7427 29.7212C57.0548 30.4746 57.5122 31.1592 58.0889 31.7359C58.6655 32.3125 59.3501 32.77 60.1036 33.082C60.857 33.3941 61.6645 33.5548 62.48 33.5548C63.2955 33.5548 64.103 33.3941 64.8565 33.082C65.6099 32.77 66.2945 32.3125 66.8712 31.7359C67.4478 31.1592 67.9052 30.4746 68.2173 29.7212C68.5294 28.9678 68.69 28.1603 68.69 27.3448C68.7115 26.5178 68.5664 25.6949 68.2635 24.9251C67.9605 24.1553 67.5058 23.4543 66.9265 22.8637C66.3471 22.2732 65.655 21.8052 64.8911 21.4875C64.1272 21.1699 63.3073 21.0091 62.48 21.0148Z" fill="#687076"/>
<path d="M85.65 35.145L78.32 26.735C77.06 25.285 75.7 23.675 74.67 22.435C74.67 23.805 74.67 25.215 74.67 26.565V34.855H73.11V19.915H74.21L81.12 27.855C82.12 29.025 83.53 30.635 84.51 31.855C84.51 30.525 84.51 29.165 84.51 27.905V19.915H86.07V35.145H85.65Z" fill="#687076"/>
<path d="M102.07 35.145L94.74 26.735C93.48 25.285 92.12 23.675 91.09 22.435C91.09 23.805 91.09 25.215 91.09 26.565V34.855H89.53V19.915H90.63L97.54 27.855C98.54 29.025 99.95 30.635 100.93 31.855C100.93 30.525 100.93 29.165 100.93 27.905V19.915H102.49V35.145H102.07Z" fill="#687076"/>
<path d="M105.95 34.815V19.915H113.73V21.275H107.51V26.645H112.61V27.995H107.51V33.465H114.55V34.815H105.95Z" fill="#687076"/>
<path d="M128.26 22.0447C127.064 21.3644 125.706 21.0189 124.33 21.0447C122.649 21.0447 121.036 21.7127 119.847 22.9017C118.658 24.0906 117.99 25.7032 117.99 27.3847C117.99 29.0662 118.658 30.6788 119.847 31.8678C121.036 33.0568 122.649 33.7247 124.33 33.7247C125.799 33.7844 127.255 33.4385 128.54 32.7247L128.16 34.3147C126.917 34.9191 125.539 35.1913 124.16 35.1047C122.115 35.1047 120.154 34.2924 118.708 32.8465C117.262 31.4006 116.45 29.4395 116.45 27.3947C116.45 25.3499 117.262 23.3888 118.708 21.9429C120.154 20.497 122.115 19.6847 124.16 19.6847C125.686 19.6256 127.2 19.9706 128.55 20.6847L128.26 22.0447Z" fill="#687076"/>
<path d="M136.34 21.265V34.815H134.77V21.265H129.66V19.915H141.48V21.265H136.34Z" fill="#687076"/>
<path d="M143.48 34.815V19.915H151.26V21.275H145.05V26.645H150.14V27.995H145.05V33.465H152.08V34.815H143.48Z" fill="#687076"/>
<path d="M158.39 34.855H154.49V19.915H158.39C162.9 19.915 166.66 22.625 166.66 27.365C166.66 32.105 162.85 34.855 158.39 34.855ZM158.16 21.315H156.05V33.465H158.16C162.08 33.465 165.05 31.335 165.05 27.365C165.05 23.395 162.05 21.275 158.16 21.275" fill="#687076"/>
<path d="M15.15 24.5547H0.390015V34.8147H15.15V24.5547Z" fill="#687076"/>
<path d="M23.15 12.9248H0.390015V23.1848H23.15V12.9248Z" fill="#687076"/>
<path d="M31.17 1.28467H0.390015V11.5447H31.17V1.28467Z" fill="#687076"/>
</svg>
