<svg width="113" height="32" viewBox="0 0 113 32" fill="none" xmlns="http://www.w3.org/2000/svg">
<path d="M61.1835 20.6812C61.1835 24.1587 56.8669 23.9523 56.8669 23.9523H52.5504V17.6688H56.8669C61.3092 17.6389 61.1835 20.6812 61.1835 20.6812ZM52.5504 8.08582H55.8396C59.2552 8.2667 59.1263 10.816 59.1263 10.816C59.1263 13.9841 55.3495 14.0358 55.3495 14.0358H52.5504V8.08582ZM60.3851 15.2714C60.3851 15.2714 63.3396 14.0093 63.3133 10.6615C63.3133 10.6615 63.7626 5.17505 56.5117 4.50586H48.4658V27.5064H57.6883C57.6883 27.5064 65.3941 27.5295 65.3941 21.0167C65.3941 21.0167 65.5763 16.5847 60.3851 15.2714ZM39.5626 -0.000976562H73.4373V32.0005H39.5626V-0.000976562ZM22.1206 20.6812C22.1206 24.1587 17.804 23.9523 17.804 23.9523H13.4872V17.6688H17.804C22.2466 17.6389 22.1206 20.6812 22.1206 20.6812ZM13.4872 8.08582H16.7771C20.1927 8.2667 20.0635 10.816 20.0635 10.816C20.0635 13.9841 16.287 14.0358 16.287 14.0358H13.4872V8.08582ZM21.3225 15.2714C21.3225 15.2714 24.2775 14.0093 24.2509 10.6615C24.2509 10.6615 24.7 5.17505 17.449 4.50586H9.40277V27.5064H18.6259C18.6259 27.5064 26.3316 27.5295 26.3316 21.0167C26.3316 21.0167 26.5131 16.5847 21.3225 15.2714ZM0.5 -0.000976562H34.3747V32.0005H0.5V-0.000976562ZM105.59 6.15481V10.4042C105.59 10.4042 101.452 7.85519 96.8801 7.80388C96.8801 7.80388 88.3501 7.63602 87.9656 16.0009C87.9656 16.0009 87.6575 23.6936 96.7773 24.132C96.7773 24.132 100.604 24.594 105.795 21.2754V25.6763C105.795 25.6763 98.8315 29.8238 90.7648 26.6293C90.7648 26.6293 83.9838 24.1469 83.7255 16.0009C83.7255 16.0009 83.4435 7.62266 92.4873 4.84147C92.4873 4.84147 94.9023 3.91459 99.2423 4.32655C99.2423 4.32655 101.836 4.58367 105.59 6.15481ZM78.6253 32.0005H112.5V-0.000976562H78.6253V32.0005Z" fill="#687076"/>
</svg>
