<svg width="174" height="49" viewBox="0 0 174 49" fill="none" xmlns="http://www.w3.org/2000/svg">
<path d="M49.148 24.7658C49.148 33.6358 44.1419 41.1876 37.1618 45.5499C34.3358 47.2243 31.1009 48.0728 27.821 48.0001C20.1145 48.0001 15.1602 44.2947 13.2503 41.1066C12.3411 39.5874 11.4001 38.019 9.52764 36.9208C8.68627 36.4854 7.78292 36.1836 6.84964 36.0259C5.24529 35.6102 3.80226 34.7197 2.70742 33.4701C2.01343 32.751 0.146807 30.0808 0.00498765 25.1427C0.00498765 25.014 -0.000109282 24.8852 -0.000109282 24.7564C-0.00320076 23.6773 0.0624075 22.5992 0.196386 21.5285L0.513099 21.59C0.824095 25.6065 2.40365 29.7647 6.64312 30.6798C8.39751 31.0575 10.4304 31.0039 12.038 31.8503C13.6544 32.7051 15.0276 33.9594 16.0283 35.495C19.8791 41.9262 28.2012 42.9462 34.5298 39.9035C45.2959 34.7303 49.31 19.7467 43.4342 9.32215C43.4342 9.32215 43.6379 9.18542 43.6458 9.18253C47.2115 13.5848 49.1547 19.0896 49.1466 24.7658H49.148ZM40.9966 6.38432C38.8787 7.64815 37.6425 10.0058 36.9198 12.3721C36.197 14.7384 35.8795 17.2191 35.0379 19.5478C34.0301 22.3214 31.6596 25.5978 28.3819 25.5862C25.0704 25.5739 23.4499 21.9286 21.2938 19.9558C19.1553 18.0071 16.3545 16.9567 13.4684 17.0208C11.6118 17.0208 9.03816 17.5562 7.46303 16.309C5.05209 14.3991 5.99222 10.8565 7.31539 8.60452C7.45145 8.37302 8.92808 6.04359 8.93024 6.04648L8.72584 5.79618C6.47839 7.48479 4.61977 9.64067 3.27687 12.1167C2.05304 14.4107 2.2237 17.9765 3.97233 20.0021C4.81196 20.8974 5.92249 21.4887 7.1312 21.684C7.68544 21.7947 8.24748 21.8612 8.81213 21.883C10.9574 21.9756 13.0732 21.6225 15.0961 22.4791C18.0477 23.7299 19.3731 26.654 21.424 28.9176C24.85 32.6939 31.8783 32.4023 35.367 28.0111C40.3587 21.726 37.3424 13.2605 41.1752 6.55215L40.9966 6.38432ZM26.5568 0.518065L26.6361 0.262693C25.2035 -0.143872 18.4343 -0.580818 14.4641 3.13108C13.8828 3.64556 13.4334 4.29315 13.1538 5.01909C12.8743 5.74503 12.7728 6.52795 12.858 7.30162C12.9987 8.02543 13.3736 8.68217 13.9244 9.16957C14.4751 9.65697 15.1709 9.94766 15.9032 9.99638C17.1493 10.0767 18.9266 9.38003 20.1375 9.68965C21.3858 10.0094 22.0813 11.0359 23.0596 11.8107C24.0017 12.6288 25.1919 13.1018 26.4359 13.1527C29.1773 13.1852 30.517 11.1792 31.9791 9.13261C35.2273 4.59457 38.1112 4.60324 38.5021 4.6141L38.5641 4.39273C37.2813 3.93118 35.4627 4.34426 34.182 4.6821C32.7107 5.08456 31.3383 5.78849 30.1507 6.74965C29.1148 7.57942 28.3558 8.68771 26.8952 8.73546C24.3129 8.82082 25.1452 5.41638 20.7711 5.8989C20.1229 6.05166 19.4463 6.03322 18.8072 5.84537C18.5443 5.72635 18.316 5.54166 18.1443 5.30891C17.9725 5.07616 17.863 4.80309 17.826 4.51571C17.6237 2.79686 20.0361 1.52146 21.378 1.11923C21.5299 1.07293 21.6832 1.03386 21.8373 0.997692L21.861 0.992631C23.3995 0.638484 24.9761 0.47906 26.554 0.518065H26.5568ZM59.2561 22.7272H62.5675L65.5754 10.3161H65.6696L68.6392 22.7272H71.9508L75.9044 7.36963H73.1616L70.2871 19.4964H70.192L67.2794 7.36963H64.0448L61.1321 19.4964H61.0377L58.1251 7.36963H55.3067L59.2561 22.7272ZM80.8732 11.0765C82.0541 11.0805 83.2073 11.436 84.1873 12.0982C85.1673 12.7604 85.93 13.6996 86.3792 14.7971C86.8283 15.8946 86.9436 17.1013 86.7108 18.2647C86.478 19.4281 85.9074 20.4961 85.071 21.3338C84.2346 22.1715 83.1698 22.7413 82.0113 22.9714C80.8527 23.2014 79.6525 23.0813 78.5619 22.6263C77.4712 22.1712 76.5392 21.4016 75.8835 20.4147C75.2278 19.4277 74.8779 18.2676 74.8778 17.0809C74.8514 16.2835 74.9886 15.4892 75.2809 14.7473C75.5731 14.0055 76.014 13.332 76.5764 12.7688C77.1387 12.2056 77.8104 11.7647 78.5496 11.4735C79.2888 11.1824 80.0798 11.0472 80.8732 11.0765V11.0765ZM80.8732 20.9404C83.0862 20.9404 84.1645 19.2295 84.1645 17.0823C84.1645 14.9352 83.0848 13.2236 80.8732 13.2236C78.6617 13.2236 77.5826 14.9345 77.5826 17.0823C77.5826 19.2302 78.6624 20.9404 80.8732 20.9404ZM93.7521 11.0765C94.933 11.0805 96.0862 11.436 97.0662 12.0982C98.0461 12.7604 98.8089 13.6996 99.258 14.7971C99.7072 15.8946 99.8227 17.1013 99.5899 18.2647C99.357 19.4281 98.7863 20.4961 97.9499 21.3338C97.1134 22.1715 96.0488 22.7413 94.8903 22.9714C93.7318 23.2014 92.5314 23.0813 91.4408 22.6263C90.3501 22.1712 89.4181 21.4016 88.7624 20.4147C88.1067 19.4277 87.7569 18.2676 87.7569 17.0809C87.7305 16.2835 87.8675 15.4892 88.1597 14.7473C88.452 14.0055 88.8931 13.332 89.4554 12.7688C90.0178 12.2056 90.6894 11.7647 91.4286 11.4735C92.1678 11.1824 92.9587 11.0472 93.7521 11.0765V11.0765ZM93.7521 20.9404C95.9651 20.9404 97.0435 19.2295 97.0435 17.0823C97.0435 14.9352 95.9636 13.2236 93.7521 13.2236C91.5406 13.2236 90.4614 14.9345 90.4614 17.0823C90.4614 19.2302 91.5413 20.9404 93.7521 20.9404ZM103.662 7.36963H100.999V22.7272H103.662V7.36963ZM107.804 22.7272H110.66L113.081 14.1546H113.176L115.634 22.7272H118.471L122.046 11.4186H119.322L116.939 19.61H116.845L114.556 11.4186H111.795L109.506 19.61H109.412L107.055 11.4157H104.237L107.804 22.7272ZM127.874 11.0736C129.055 11.0776 130.209 11.4331 131.189 12.0953C132.169 12.7575 132.931 13.6967 133.38 14.7942C133.83 15.8917 133.945 17.0984 133.712 18.2618C133.479 19.4252 132.909 20.4932 132.072 21.3309C131.236 22.1686 130.171 22.7384 129.013 22.9685C127.854 23.1985 126.654 23.0784 125.563 22.6234C124.472 22.1683 123.54 21.3987 122.885 20.4118C122.229 19.4248 121.879 18.2647 121.879 17.078C121.853 16.2806 121.99 15.4863 122.282 14.7444C122.574 14.0026 123.015 13.3291 123.578 12.7659C124.14 12.2027 124.812 11.7618 125.551 11.4706C126.29 11.1795 127.081 11.0443 127.874 11.0736V11.0736ZM127.874 20.9375C130.087 20.9375 131.166 19.2266 131.166 17.0794C131.166 14.9323 130.086 13.2207 127.874 13.2207C125.663 13.2207 124.584 14.9316 124.584 17.0794C124.584 19.2273 125.664 20.9375 127.874 20.9375ZM143.156 19.9869C143.129 20.3533 143.18 20.7213 143.308 21.0657C143.435 21.4101 143.635 21.7229 143.893 21.9827C144.152 22.2425 144.463 22.4432 144.806 22.5711C145.148 22.6989 145.515 22.751 145.879 22.7236H149V20.5938H146.825C146.678 20.615 146.529 20.6016 146.388 20.5545C146.247 20.5075 146.12 20.4282 146.015 20.3228C145.91 20.2175 145.831 20.0891 145.784 19.9478C145.738 19.8065 145.724 19.6561 145.745 19.5087V13.5404H148.998V11.415H145.745V8.46923H143.154V11.415H142.114C139.542 11.415 138.464 12.1384 137.877 14.9504H137.783V11.415H135.116V22.7236H137.783V18.3151C137.783 15.1407 139.183 13.5404 141.547 13.5404H143.154V19.9833L143.156 19.9869ZM157.282 11.0504C156.315 11.0304 155.372 11.3554 154.621 11.9678C153.87 12.5803 153.359 13.4404 153.179 14.3955H153.046V7.36673H150.379V22.7243H153.046V16.8508C153.046 14.8173 154.049 13.1831 156.015 13.1831C157.455 13.1831 158.72 13.9788 158.72 16.1289V22.7243H161.384V15.3302C161.384 12.898 159.852 11.054 157.28 11.054L157.282 11.0504ZM162.487 19.0558C162.809 21.603 164.814 23.0853 167.935 23.0853C170.98 23.0853 173.003 21.6602 173.003 19.3235C173.003 17.6886 172.058 16.5673 170.205 16.2634L166.876 15.7122C165.779 15.5219 165.306 15.1233 165.306 14.4006C165.306 13.5455 166.119 13.0702 167.708 13.0702C169.259 13.0702 170.091 13.7546 170.242 14.9511H172.814C172.626 12.4799 170.809 11.0548 167.708 11.0548C164.719 11.0548 162.809 12.4047 162.809 14.5713C162.809 16.2055 163.83 17.46 165.797 17.7833L168.994 18.2962C170.053 18.4677 170.505 18.8287 170.505 19.5695C170.505 20.5396 169.56 21.0713 168.028 21.0713C166.382 21.0713 165.361 20.3869 165.058 19.0566H162.487V19.0558ZM68.3434 37.454V41.0668H70.8205V33.0057H63.1609V35.1535H68.1346V35.5876C68.1346 37.7166 66.1865 39.2553 63.7655 39.2553C60.454 39.2553 58.4513 36.8991 58.4513 33.3826C58.4513 30.1705 60.1718 27.5098 63.6525 27.5098C66.2052 27.5098 67.684 28.9566 68.0216 30.9497H70.6852C70.1366 27.4903 67.4133 25.3431 63.6497 25.3431C58.732 25.3431 55.7617 28.783 55.7617 33.3826C55.7617 38.0392 58.8831 41.422 62.8361 41.422C65.6538 41.422 67.5458 40.0156 68.2455 37.4504L68.3434 37.454ZM75.1881 33.3486V29.756H72.5245V41.0668H75.1881V36.6539C75.1881 33.4802 76.3983 31.8641 78.5717 31.8641H79.5176V29.6215H78.9496C76.7561 29.6215 75.8669 30.3449 75.278 33.3471L75.1881 33.3486ZM85.5338 29.4138C86.7146 29.418 87.8678 29.7737 88.8477 30.436C89.8275 31.0982 90.5901 32.0375 91.0392 33.135C91.4882 34.2325 91.6035 35.4391 91.3706 36.6025C91.1377 37.7658 90.5671 38.8338 89.7307 39.6714C88.8942 40.509 87.8294 41.0788 86.6709 41.3088C85.5124 41.5388 84.3121 41.4187 83.2215 40.9636C82.1309 40.5085 81.199 39.7389 80.5433 38.752C79.8877 37.765 79.5377 36.6049 79.5377 35.4183C79.5113 34.6208 79.6486 33.8264 79.9409 33.0845C80.2331 32.3426 80.6741 31.6691 81.2365 31.1059C81.799 30.5427 82.4708 30.1018 83.2101 29.8107C83.9494 29.5196 84.7403 29.3845 85.5338 29.4138V29.4138ZM85.5338 39.2785C87.7467 39.2785 88.8245 37.5676 88.8245 35.4197C88.8245 33.2719 87.7446 31.5617 85.5338 31.5617C83.323 31.5617 82.2424 33.2726 82.2424 35.4197C82.2424 37.5668 83.3222 39.2785 85.5338 39.2785ZM101.099 35.6288C101.099 37.6443 100.096 39.2785 98.1471 39.2785C96.3473 39.2785 95.4424 38.1564 95.4424 36.3515V29.756H92.7788V37.1494C92.7391 37.7099 92.8175 38.2726 93.0089 38.8006C93.2002 39.3286 93.5001 39.8101 93.8892 40.2137C94.2783 40.6173 94.7477 40.9339 95.2668 41.1428C95.7859 41.3518 96.3429 41.4484 96.9017 41.4263C97.8689 41.451 98.8127 41.1243 99.5596 40.5063C100.307 39.8883 100.807 39.0203 100.968 38.0617H101.101V41.0668H103.764V29.7553H101.101V35.6281L101.099 35.6288ZM112.391 29.3943C115.664 29.3943 117.286 32.3018 117.286 35.4378C117.286 38.8025 115.47 41.4249 112.391 41.4249C111.453 41.4152 110.543 41.1036 109.794 40.5358C109.045 39.968 108.497 39.1739 108.23 38.27H108.136V45.1122H105.472V29.7553H108.136V32.568H108.23C108.493 31.6606 109.04 30.8623 109.789 30.2908C110.538 29.7194 111.451 29.4051 112.391 29.3943V29.3943ZM111.351 39.4499C113.526 39.4499 114.604 37.6414 114.604 35.4393C114.604 33.2154 113.564 31.3722 111.351 31.3722C110.913 31.3683 110.479 31.4549 110.076 31.6266C109.673 31.7984 109.31 32.0515 109.008 32.3704C108.707 32.6893 108.474 33.067 108.324 33.4802C108.173 33.8934 108.109 34.3332 108.136 34.7723V36.065C108.108 36.5036 108.171 36.9431 108.321 37.3559C108.471 37.7687 108.704 38.1459 109.006 38.4636C109.308 38.7814 109.673 39.0329 110.076 39.2023C110.479 39.3716 110.914 39.4552 111.351 39.4478" fill="#687076"/>
</svg>
