<svg width="154" height="32" viewBox="0 0 154 32" fill="none" xmlns="http://www.w3.org/2000/svg">
<path d="M29.476 1.02102C27.3645 1.02102 25.5768 2.13811 24.1129 4.37229L19.6789 11.1162C19.6789 7.94454 18.8202 5.43453 17.1029 3.58619C16.2167 2.65732 15.1344 1.92824 13.9312 1.44956C12.7279 0.970871 11.4326 0.754051 10.1351 0.814149C8.81961 0.750282 7.50562 0.966973 6.28424 1.4492C5.06287 1.93143 3.96331 2.66767 3.06177 3.60688C1.33038 5.46871 0.464686 7.98562 0.464691 11.1576V30.3964H3.25182V11.199C3.13364 9.12787 3.78618 7.08496 5.08877 5.448C5.71157 4.7454 6.48944 4.19039 7.36364 3.82485C8.23784 3.45932 9.18552 3.29283 10.1351 3.33795C11.0847 3.2929 12.0324 3.45942 12.9066 3.82495C13.7808 4.19047 14.5587 4.74546 15.1815 5.448C16.4841 7.08496 17.1366 9.12787 17.0185 11.199V14.6743L12.2044 21.7493C11.5562 22.6318 11.0109 23.5824 10.5786 24.5834C10.2854 25.3294 10.1351 26.1218 10.1352 26.921C10.1187 27.469 10.2212 28.0141 10.4359 28.5205C10.6506 29.0268 10.9727 29.4829 11.3809 29.8586C12.2997 30.663 13.5065 31.0794 14.7381 31.017C15.4192 31.0503 16.0998 30.94 16.7336 30.6938C17.3674 30.4475 17.9398 30.071 18.412 29.5896C19.3612 28.5056 19.8454 27.1048 19.7633 25.6798V15.4605L26.2666 5.6549C27.1672 4.27606 28.2088 3.58649 29.3915 3.58619C29.7316 3.57157 30.0708 3.63076 30.3848 3.75952C30.6987 3.88828 30.9796 4.08341 31.2074 4.33091C31.6878 4.91429 31.9287 5.65186 31.883 6.39962V30.3964H34.6702V6.31686C34.7473 4.89782 34.2462 3.50674 33.2766 2.44841C32.7807 1.96337 32.1861 1.58566 31.5313 1.33977C30.8766 1.09387 30.1764 0.985276 29.476 1.02102V1.02102ZM17.1029 25.5143C17.1508 26.3395 16.929 27.1582 16.4695 27.8519C16.276 28.1232 16.0163 28.3429 15.7139 28.4911C15.4115 28.6392 15.0761 28.7111 14.7381 28.7001C14.4703 28.7148 14.2024 28.6746 13.9515 28.5819C13.7006 28.4893 13.4723 28.3463 13.2812 28.1622C12.9103 27.7539 12.7204 27.2181 12.7534 26.6728C12.7523 26.1268 12.8599 25.5857 13.0701 25.0799C13.3887 24.3701 13.7629 23.6854 14.1891 23.0319L17.1029 18.6049L17.1029 25.5143Z" fill="#687076"/>
<path d="M67.275 8.1811C65.7387 5.53256 63.396 3.41862 60.5734 2.13378C57.7508 0.848936 54.5887 0.457162 51.5276 1.01303C48.4666 1.5689 45.659 3.04473 43.4961 5.23494C41.3331 7.42516 39.9223 10.2207 39.4604 13.2321C38.4878 19.3707 41.018 25.8314 46.6039 29.0335C49.3443 30.563 52.5 31.2294 55.6415 30.9422C58.7829 30.655 61.7576 29.4281 64.1608 27.4284C69.5921 22.7353 70.7623 14.3172 67.275 8.1811ZM58.2965 10.0765C58.3067 10.1129 58.316 9.97167 58.3223 9.96699C58.2568 9.90655 58.5819 9.62444 58.63 9.59165C59.0771 9.28612 59.0978 9.56385 59.4244 9.66682C59.4275 9.67763 59.4466 9.7457 59.4371 9.75484C59.2672 10.0391 58.3678 11.0177 58.2814 10.1267C58.2814 10.1089 58.2867 10.0914 58.2965 10.0765V10.0765ZM57.6971 14.4314C57.7217 14.3672 57.7357 13.8207 57.7566 13.8227C57.7629 13.8207 57.7643 13.8166 57.7611 13.8102C57.7534 13.808 57.7509 13.8027 57.7543 13.7946C57.7766 13.7399 57.7851 13.6807 57.7791 13.622C57.7765 13.6188 57.7749 13.6214 57.7722 13.6188C57.7703 13.5557 57.7771 13.4927 57.7925 13.4313C57.8089 13.4299 57.8108 13.4185 57.7981 13.397C57.8086 13.3439 57.8156 13.2901 57.8189 13.2361C57.8234 13.2272 57.8255 13.2173 57.825 13.2074C57.8245 13.1975 57.8214 13.1878 57.816 13.1794C57.8137 13.1711 57.8212 13.166 57.8098 13.1638C57.8166 13.1539 57.8212 13.1428 57.8234 13.1311C57.8255 13.1194 57.8251 13.1074 57.8222 13.0958L57.8186 13.0894C57.8186 13.0926 57.8418 13.0907 57.8334 13.0882C57.8211 13.0868 57.8188 13.0797 57.8265 13.0667C57.8286 13.0662 57.8305 13.0653 57.8322 13.064C57.8339 13.0627 57.8352 13.061 57.8362 13.0592C57.8299 13.0023 57.8329 12.9449 57.8451 12.8889H57.8528C57.8595 12.8395 57.8626 12.7897 57.862 12.7398C57.8572 12.7277 57.8592 12.7192 57.8682 12.7142C57.8744 12.7152 57.8764 12.7049 57.8759 12.7026L57.8721 12.6951C57.8714 12.6881 57.8714 12.6812 57.8721 12.6742C57.8764 12.6602 57.8797 12.6459 57.8822 12.6314C57.8835 12.6311 57.8848 12.6306 57.886 12.6299C57.8872 12.6291 57.8881 12.6281 57.8889 12.627C57.8897 12.6259 57.8902 12.6246 57.8904 12.6233C57.8907 12.6219 57.8907 12.6205 57.8904 12.6192C57.8802 12.6185 57.8775 12.6127 57.8822 12.6019C57.8807 12.5842 57.8929 12.5811 57.885 12.575C57.8914 12.4894 57.903 12.4042 57.9197 12.32C57.9291 12.3183 57.929 12.3141 57.9197 12.3072C57.9289 12.2953 57.9168 12.2874 57.9206 12.2803C57.9517 12.196 57.9751 12.1091 57.9905 12.0208C58.0522 11.8386 58.1756 11.6826 58.3404 11.5785C58.3282 11.5844 58.4099 11.5477 58.4034 11.5449C58.4451 11.5558 58.5069 11.4952 58.5517 11.4952C58.5978 11.4855 58.6449 11.4815 58.6919 11.4831C58.816 11.5039 58.8606 11.524 58.8797 11.6179C58.8778 11.6279 58.8766 11.6379 58.8761 11.6481C58.8735 11.6487 58.8677 11.6487 58.8689 11.6525C58.8736 11.6534 58.878 11.6555 58.8816 11.6587C58.8751 11.6474 58.863 11.7109 58.8758 11.6983L58.8807 11.721C58.8829 11.7164 58.8866 11.7128 58.8913 11.7107C58.896 11.7087 58.9013 11.7083 58.9062 11.7098C58.9125 11.719 58.9047 11.7325 58.9075 11.7373C58.9146 11.7322 58.9159 11.7329 58.9114 11.7393C58.9066 11.7498 58.906 11.7616 58.9098 11.7725C58.92 11.7788 58.9219 11.785 58.9153 11.7911C58.9225 11.7919 58.9266 11.788 58.9277 11.7796C58.9309 11.782 58.9335 11.7851 58.9352 11.7887C58.937 11.7922 58.9379 11.7961 58.9378 11.8C58.9461 11.8115 58.9508 11.8251 58.9513 11.8391C58.9518 11.8531 58.9482 11.867 58.9408 11.879C58.9393 11.8728 58.9536 11.9216 58.9539 11.9207L58.9493 11.9341C58.9465 11.935 58.944 11.9365 58.9418 11.9384C58.9396 11.9404 58.9379 11.9427 58.9367 11.9454C58.9356 11.948 58.935 11.9508 58.935 11.9537C58.935 11.9566 58.9357 11.9594 58.9369 11.962C58.9321 11.966 58.9285 11.9711 58.9265 11.9769C58.9245 11.9827 58.9241 11.989 58.9254 11.9949L58.9248 12.0025C58.9325 11.9977 58.9343 12.0002 58.9304 12.0101L58.9248 12.0107C58.931 12.0162 58.9285 12.0195 58.9171 12.0206L58.9105 12.0196C58.9013 12.0328 58.902 12.041 58.9128 12.0446C58.9419 12.0625 58.8686 12.1111 58.8919 12.1207C58.8942 12.126 58.8953 12.1317 58.8952 12.1374L58.8998 12.1333C58.9024 12.1358 58.9057 12.1376 58.9093 12.1383C58.9129 12.1391 58.9166 12.1388 58.92 12.1374C58.9164 12.141 58.9115 12.1433 58.9064 12.1438C58.9028 12.1477 58.9002 12.1523 58.8986 12.1573C58.897 12.1623 58.8965 12.1676 58.8972 12.1728C58.8978 12.178 58.8996 12.183 58.9023 12.1875C58.9051 12.192 58.9088 12.1959 58.9132 12.1989C58.9065 12.2001 58.9052 12.2035 58.9092 12.2091C58.9064 12.2146 58.8844 12.2518 58.8844 12.2517C58.8857 12.2546 58.8861 12.2578 58.8855 12.2609C58.8849 12.2641 58.8834 12.267 58.8812 12.2693C58.8845 12.2758 58.9168 12.2974 58.888 12.2974C58.8715 12.3 58.8838 12.3277 58.8853 12.3352L58.8952 12.3374C58.8936 12.3494 58.8882 12.3606 58.8797 12.3694C58.8711 12.3782 58.86 12.3842 58.8478 12.3864C58.8415 12.3934 58.8409 12.3996 58.8459 12.405L58.8429 12.4078C58.8413 12.4164 58.8914 12.4112 58.8982 12.4123C58.8952 12.4128 58.8924 12.4139 58.89 12.4156C58.8875 12.4173 58.8855 12.4195 58.884 12.422C58.8825 12.4246 58.8817 12.4274 58.8814 12.4303C58.8812 12.4332 58.8816 12.4362 58.8827 12.4389C58.882 12.4453 58.8772 12.4424 58.8736 12.4459C58.8756 12.4509 58.8783 12.4555 58.8817 12.4597L58.874 12.46L58.8727 12.453C58.8707 12.452 58.8626 12.46 58.8639 12.453C58.8626 12.4543 58.8611 12.4554 58.8594 12.4561C58.8577 12.4568 58.8559 12.4571 58.8541 12.4571C58.8522 12.4571 58.8504 12.4568 58.8487 12.4561C58.847 12.4554 58.8455 12.4543 58.8443 12.453C58.839 12.4556 58.8466 12.4572 58.8456 12.4606C58.8495 12.4625 58.8505 12.472 58.8511 12.4746C58.8503 12.4671 58.8802 12.5394 58.8527 12.5258C58.8373 12.4869 58.8515 12.5975 58.8586 12.5585C58.8473 12.5985 58.8657 12.5618 58.8378 12.5805C58.8232 12.5876 58.8378 12.641 58.8319 12.6557C58.8318 12.6701 58.8308 12.6844 58.8289 12.6986C58.825 12.7131 58.8181 12.8463 58.8466 12.8116C58.8543 12.8164 58.8534 12.8207 58.8443 12.8244L58.8345 12.8395C58.825 12.8433 58.8259 12.8449 58.8368 12.8443C58.8346 12.845 58.8327 12.8465 58.8315 12.8484C58.8303 12.8504 58.8299 12.8526 58.8302 12.8549L58.8361 12.8507L58.8498 12.8565C58.8514 12.8609 58.8453 12.8599 58.8433 12.8626C58.8441 12.8634 58.8447 12.8645 58.8451 12.8656C58.8455 12.8667 58.8457 12.8679 58.8456 12.869C58.8455 12.8702 58.8451 12.8713 58.8446 12.8724C58.844 12.8734 58.8433 12.8743 58.8423 12.875C58.847 12.8793 58.8468 12.8826 58.8416 12.8856L58.8511 12.8984C58.8626 12.9053 58.8639 12.912 58.8551 12.9183L58.8534 12.9228C58.8091 12.9799 58.8068 13.0241 58.8466 13.0552L58.8527 13.0581H58.8596C58.8554 13.114 58.8154 13.2706 58.858 13.2923C58.8096 13.2798 58.8558 13.5165 58.8612 13.5157C58.8633 13.552 58.8588 13.5884 58.8479 13.6232C58.8227 13.629 58.817 13.639 58.8312 13.6534C58.8265 13.7643 58.8311 13.8753 58.8449 13.9853C58.8246 13.9668 58.8004 13.9527 58.774 13.944C58.7706 13.9731 58.859 14.0649 58.8456 14.0845C58.8159 14.1242 58.7564 13.9816 58.7564 14.1374C58.7377 14.2537 58.7341 14.3719 58.7459 14.4891C58.7488 14.4942 58.7498 14.5 58.7489 14.5057C58.7479 14.5114 58.7451 14.5166 58.7407 14.5205C58.7428 14.5283 58.7456 14.5359 58.7492 14.5431C58.7392 14.6099 58.8137 14.9321 58.7472 14.9733C58.7259 15.3596 58.0897 15.6276 57.768 15.5973C57.7656 15.542 57.6312 15.403 57.6203 15.3045C57.6024 15.0114 57.6282 14.7174 57.6971 14.4316V14.4314ZM51.9005 14.5172C51.9208 14.47 52.239 14.4069 52.2964 14.3911C52.2937 14.3735 52.2831 14.3718 52.2647 14.3859C52.2611 14.36 52.284 14.3664 52.3043 14.3654L52.3062 14.3571C52.3091 14.358 52.3122 14.358 52.315 14.3569C52.3178 14.3559 52.3201 14.3539 52.3217 14.3514C52.3289 14.3549 52.3369 14.3568 52.345 14.3572C52.3531 14.3575 52.3611 14.3562 52.3687 14.3534C52.3763 14.3506 52.3832 14.3462 52.3889 14.3407C52.3947 14.3352 52.3993 14.3285 52.4023 14.3212C52.4324 14.3029 52.4551 14.3039 52.4817 14.2895C52.4949 14.3032 52.5091 14.3 52.5242 14.2799C52.5183 14.2742 52.5105 14.2749 52.5088 14.2675C52.5202 14.2681 52.5231 14.2607 52.5319 14.2575L52.5356 14.2469H52.5398C52.5408 14.2708 52.5504 14.2752 52.5685 14.2604C52.5696 14.2586 52.5702 14.2567 52.5704 14.2546C52.5707 14.2526 52.5705 14.2505 52.5699 14.2486C52.5582 14.2439 52.623 14.2274 52.6339 14.2201L52.6404 14.2175C52.8537 14.0955 53.0751 14.2879 53.115 14.479C53.1221 14.4929 53.1361 14.5092 53.1459 14.5283L53.1514 14.5289C53.1454 14.5372 53.1427 14.5473 53.1439 14.5574C53.1451 14.5674 53.1501 14.5767 53.1579 14.5833C53.1544 14.595 53.1242 14.7407 53.1468 14.7356C53.1532 14.8077 53.0719 14.8815 53.0464 14.9424C53.0175 14.9452 52.9606 15.018 52.9389 15.0394C52.8639 15.0944 52.7398 15.2412 52.6483 15.2541C52.6283 15.2757 52.6053 15.2945 52.58 15.3098L52.5829 15.3143C52.5694 15.3191 52.5578 15.3281 52.5499 15.3398C52.5467 15.3424 52.5427 15.3501 52.5398 15.3517C52.5365 15.3504 52.533 15.3499 52.5294 15.3501C52.5259 15.3503 52.5225 15.3512 52.5193 15.3529C52.5162 15.3545 52.5135 15.3568 52.5114 15.3596C52.5093 15.3624 52.5078 15.3656 52.5071 15.369C52.505 15.3735 52.5017 15.3773 52.4976 15.3802C52.4843 15.3968 52.4675 15.4104 52.4483 15.4202L52.4538 15.4237L52.4526 15.4263C52.4457 15.4257 52.4388 15.427 52.4326 15.4301C52.4265 15.4332 52.4214 15.438 52.4179 15.4439C52.424 15.49 52.2325 15.6981 52.2016 15.7488C52.1557 15.7488 52.1359 15.8762 52.1572 15.9034C52.1293 15.9625 52.08 15.933 52.1291 15.9856C52.1063 16.1111 52.0634 16.2323 52.002 16.3447C52.0194 16.3483 52.0373 16.3726 52.0132 16.3812C52.0136 16.3939 51.9739 16.4394 52.003 16.451C51.997 16.4756 51.9934 16.5006 51.9923 16.5258L51.9846 16.5214C51.9769 16.5281 51.9809 16.5374 51.9923 16.5352C51.9914 16.5411 51.9885 16.5466 51.9841 16.5508C51.9875 16.5542 51.992 16.5565 51.9968 16.5572C51.9969 16.6797 51.9869 16.8021 51.9668 16.923C51.9664 16.9355 51.9641 16.9538 51.9762 16.9598C51.9107 17.0375 51.9881 17.2016 51.9554 17.2927C51.9416 17.4006 51.9375 17.5095 51.9432 17.6182C51.9371 17.6188 51.9741 17.7789 51.9338 17.7807C51.9018 17.9273 51.8856 18.0767 51.8854 18.2265C51.8379 18.2369 51.5832 18.6274 51.4823 18.6934C51.4771 18.6938 51.4719 18.6954 51.4674 18.698C51.4628 18.7007 51.4589 18.7042 51.4559 18.7085C51.4426 18.7149 51.2973 18.7791 51.2965 18.7853C51.2876 18.7892 51.2778 18.791 51.2681 18.7907C51.2617 18.8185 51.1417 18.8265 51.109 18.8387C51.0669 18.845 51.0239 18.8445 50.9819 18.8371C50.9573 18.8287 50.9335 18.8183 50.9107 18.8058V18.7875C50.9055 18.7853 50.9039 18.7844 50.8996 18.7869C50.89 18.7828 50.8811 18.7773 50.8732 18.7705L50.8709 18.7613C50.7207 18.3945 50.8681 18.0435 50.7761 17.6834L50.7774 17.6822C50.8283 17.465 50.8342 17.2401 50.7948 17.0206C50.7749 17.0181 50.8025 16.9928 50.7918 16.9845C50.801 16.977 50.7957 16.9618 50.7932 16.9525C50.7745 16.9506 50.7709 16.8895 50.7964 16.8879C50.8183 16.8054 50.8359 16.7218 50.849 16.6376C50.7872 16.5898 50.9813 15.7111 50.8937 15.7063C50.8937 15.5799 50.89 15.2368 50.9826 15.1556C50.813 14.9028 51.5106 14.6009 51.6486 14.5471L51.6483 14.5497C51.6571 14.5462 51.6737 14.5427 51.6637 14.5573C51.6654 14.5579 51.6673 14.558 51.669 14.5576C51.6708 14.5572 51.6725 14.5564 51.6738 14.5551C51.6751 14.5539 51.676 14.5524 51.6765 14.5506C51.677 14.5489 51.677 14.5471 51.6764 14.5454C51.7116 14.5372 51.747 14.5306 51.7826 14.5255C51.8221 14.5197 51.862 14.5197 51.9005 14.5172V14.5172ZM47.5448 17.5133C47.5424 17.513 47.5401 17.5132 47.5378 17.5139C47.5355 17.5145 47.5334 17.5156 47.5315 17.5171C47.5297 17.5185 47.5281 17.5203 47.527 17.5223C47.5258 17.5244 47.5251 17.5266 47.5249 17.5289C47.4851 17.5305 47.4959 17.6683 47.5053 17.6498L47.5036 17.6574L47.4975 17.6612C47.4959 17.664 47.4949 17.6672 47.4947 17.6704C47.4944 17.6736 47.4948 17.6768 47.4958 17.6798C47.5254 17.6968 47.5275 17.7035 47.502 17.6999C47.4684 17.8146 47.4415 17.9311 47.4213 18.0488C47.4035 18.1732 47.3441 18.271 47.4527 18.3314C47.4521 18.337 47.4529 18.3427 47.455 18.348C47.457 18.3533 47.4602 18.3581 47.4644 18.362C47.4701 18.4481 47.4572 18.5344 47.4265 18.6152C47.3885 18.6574 47.4118 18.7338 47.357 18.7867L47.3486 18.7874C47.3609 18.7802 47.3274 18.8355 47.3293 18.837L47.3257 18.8388C47.3132 18.8609 47.3028 18.8841 47.2948 18.9081C47.2933 18.9102 47.2925 18.9127 47.2925 18.9153C47.2925 18.9178 47.2933 18.9204 47.2948 18.9225C47.2981 18.9332 47.2288 19.566 47.2811 19.5571C47.2847 19.5506 47.2425 19.5684 47.2541 19.5462C47.2475 19.5395 47.2276 19.5555 47.2358 19.559C47.2358 19.5626 47.2324 19.5638 47.2308 19.567C47.2327 19.5764 47.2291 19.5816 47.2201 19.5827C47.2174 19.5871 47.2207 19.5902 47.2256 19.5902C47.2291 19.6129 47.2302 19.6358 47.2289 19.6587C47.2303 19.6637 47.2302 19.6691 47.2285 19.6742C47.2268 19.6792 47.2236 19.6836 47.2194 19.6868C47.2256 19.7124 47.2194 19.7298 47.2015 19.739C47.1487 19.8456 47.1253 19.9639 47.1335 20.082C47.0963 20.1075 47.1002 20.2829 47.0953 20.3102C47.0479 20.4486 47.1178 20.6299 47.0453 20.7721C47.0227 20.8253 47.0127 20.8828 47.0158 20.9404C47.0119 21.0285 47.002 21.1163 46.9862 21.2032V21.2002C46.9403 21.2705 46.9885 21.3867 46.9538 21.4585C46.9452 21.4615 46.945 21.4656 46.9538 21.4707C46.947 21.4981 46.9427 21.526 46.9411 21.5542C46.9404 21.5793 46.9379 21.6044 46.9333 21.6291C46.888 21.8091 46.8647 21.9938 46.8638 22.1792C46.7717 22.4661 46.7279 22.7657 46.7341 23.0663C46.6724 23.2041 46.6275 23.3484 46.6003 23.4964C46.5889 23.5125 46.5787 23.5294 46.5698 23.547C46.564 23.5507 46.5592 23.5556 46.5555 23.5614C46.5519 23.5671 46.5497 23.5736 46.5489 23.5803C46.6121 23.5585 46.3719 23.7163 46.3712 23.7163V23.7189C46.3881 23.7969 45.9464 23.7251 45.9155 23.716C45.9061 23.7091 45.8992 23.6995 45.8959 23.6885C45.8519 23.643 45.8055 23.5998 45.7568 23.5592C45.764 23.3823 45.5924 23.198 45.6112 23.0276C45.6056 22.9687 45.597 22.9101 45.5854 22.852C45.5732 22.8198 45.5662 22.786 45.5644 22.7517C45.5516 22.7184 45.5452 22.6831 45.5455 22.6475C45.4616 22.5406 45.5244 22.3226 45.4612 22.2058C45.4479 22.1989 45.445 22.1899 45.4524 22.179C45.4349 21.8279 45.3725 21.4804 45.2666 21.1446C45.2496 21.1411 45.2323 21.1399 45.215 21.1411C45.2137 21.1469 45.2087 21.1539 45.2016 21.1529C45.2226 21.0182 45.2259 20.8814 45.2113 20.7458C45.2057 20.6917 45.1982 20.6379 45.1889 20.5842L45.1833 20.5804C45.181 20.5695 45.1833 20.5577 45.1813 20.5462C45.1572 20.5453 45.1482 20.3438 45.1461 20.3205C45.107 20.1602 45.0823 19.997 45.0722 19.8325V19.8245H45.0602C45.061 19.7949 45.0592 19.7654 45.0546 19.7362C44.8202 19.5065 45.0736 17.9526 44.7541 17.8371C44.7254 17.7417 44.7419 17.634 44.7067 17.5372C44.6835 17.551 44.6947 17.4919 44.678 17.4896C44.676 17.479 44.6906 17.479 44.6852 17.4684C44.7107 17.4661 44.5574 16.4438 44.5405 16.3762C44.5327 16.3787 44.5228 16.4031 44.514 16.3941C44.6017 16.2335 44.3518 16.1221 44.4234 15.9822C44.4143 15.9813 44.4268 15.5833 44.1945 15.6452C44.1957 15.6478 44.1963 15.6506 44.1963 15.6534C44.1963 15.6562 44.1957 15.659 44.1945 15.6615C44.187 15.6966 44.1764 15.731 44.1628 15.7643C44.1613 15.7643 44.1353 15.7838 44.136 15.7899C44.1461 15.7922 44.1422 15.8024 44.1383 15.8078C44.1863 15.8443 44.0431 15.8682 44.0611 15.8625C44.0598 15.8706 44.0575 15.8821 44.0643 15.8878C44.0611 15.8907 44.0566 15.8897 44.0549 15.8954C44.0571 15.9075 44.0564 15.92 44.0529 15.9319C44.0579 15.93 44.0546 15.9255 44.0562 15.9214C44.0939 15.9214 43.9986 16.0085 44.013 15.993C44.0004 16.0727 43.9764 16.1501 43.9415 16.2231L43.9268 16.2356C43.9188 16.2387 43.912 16.2444 43.9078 16.2518C43.9036 16.2592 43.9021 16.2679 43.9037 16.2762C43.9044 16.2782 43.9046 16.2803 43.9043 16.2824C43.9041 16.2845 43.9033 16.2865 43.9022 16.2883C43.901 16.29 43.8994 16.2915 43.8976 16.2926C43.8958 16.2937 43.8937 16.2943 43.8915 16.2945C43.7917 16.3561 43.8358 16.6456 43.787 16.6804C43.754 16.7129 43.7849 16.7498 43.7678 16.78C43.7585 16.7846 43.7506 16.7917 43.7453 16.8005C43.7399 16.8092 43.7371 16.8193 43.7374 16.8296L43.7208 16.8436C43.7165 16.8518 43.7023 16.8722 43.7083 16.883C43.7598 16.9475 43.4946 17.4532 43.438 17.5196C43.5914 17.8762 42.82 17.9372 42.669 17.8209C42.2588 17.5045 42.7694 17.2631 42.6502 16.9038C42.704 16.8204 42.7393 16.7268 42.7537 16.6292C42.7474 16.6312 42.7449 16.6276 42.739 16.628C42.7909 16.4143 42.8687 16.2075 42.9707 16.0119C42.9285 15.996 43.3036 15.2937 43.2402 15.2249C43.4062 14.6872 43.6372 12.9802 44.288 12.7684L44.2868 12.7675C44.861 12.5345 45.0063 13.0944 45.1353 13.4977C45.3641 13.5629 45.1985 14.794 45.3748 14.9321H45.3739C45.3811 14.9266 45.3902 14.924 45.3993 14.9249C45.4084 14.9258 45.4169 14.9301 45.4228 14.9368C45.4195 15.0857 45.4317 15.2346 45.4591 15.3811C45.4476 15.3852 45.4418 15.383 45.4486 15.3977C45.4627 15.3894 45.4486 15.4105 45.4486 15.4124C45.4708 15.6176 45.5063 15.8211 45.5551 16.0218C45.593 16.0314 45.6176 16.356 45.6694 16.4071C45.599 16.465 45.8865 16.9194 45.7743 16.9994C45.8533 17.1554 45.8932 17.3275 45.8909 17.5016C45.947 17.4893 45.9218 18.0416 45.921 18.0561C45.951 18.0623 45.9475 18.035 45.9726 18.0462C45.9738 18.06 45.988 18.1596 45.9494 18.1579C45.9615 18.4167 45.987 18.6748 46.0258 18.9311C46.1282 18.9714 46.0868 19.1306 46.1061 19.2319C46.1401 19.2175 46.1353 19.2198 46.1587 19.2444C46.1336 19.3268 46.2088 19.2347 46.2009 19.2393C46.1993 19.2245 46.2011 19.2095 46.2062 19.1954C46.2133 19.1954 46.2172 19.191 46.2241 19.1904C46.2666 18.5241 46.4275 17.8741 46.5066 17.2128C46.4825 16.6938 46.586 16.1767 46.8084 15.7049C46.5254 15.3067 47.1311 14.1157 47.2572 13.7133C47.3753 13.3367 47.479 12.9591 47.5785 12.5768C47.6602 12.2628 47.7115 11.3989 47.972 11.1839C47.8431 10.9824 48.2147 10.4418 48.2894 10.254C48.5391 9.62693 48.7521 8.98369 48.9873 8.35094C49.0859 8.08576 49.556 6.16939 49.9184 6.07881C49.9376 5.93987 50.0995 5.87308 50.1408 5.75462L50.1533 5.75114C50.1565 5.74373 50.1612 5.73707 50.1672 5.7316C50.1733 5.72613 50.1804 5.72197 50.1882 5.71941C50.0695 5.44546 51.2185 5.34475 51.4262 5.6218C51.6936 5.85933 51.5455 6.14356 51.7146 6.3622C51.6423 6.45188 51.6275 6.63857 51.5549 6.74812C51.5525 6.75037 51.5507 6.75312 51.5495 6.75617C51.5484 6.75922 51.548 6.76249 51.5483 6.76572C51.539 6.77283 51.5322 6.78257 51.5288 6.7936C51.5161 6.80337 51.5064 6.81637 51.5008 6.83117C51.4953 6.84597 51.494 6.86199 51.4971 6.87746C51.4887 6.86991 51.4816 6.86938 51.4762 6.87678C51.4155 6.88796 51.4595 7.01837 51.4099 7.01277C51.3874 7.03756 51.3629 7.06058 51.3367 7.0816C51.3293 7.08179 51.3222 7.08442 51.3165 7.08906C51.3108 7.09371 51.3068 7.10011 51.3053 7.10721C51.2898 7.11477 51.3075 7.10721 51.2982 7.12731C51.3026 7.11432 51.1961 7.2083 51.1982 7.23074C51.1659 7.25321 51.1302 7.27041 51.0923 7.28166C51.0572 7.33504 51.0152 7.38374 50.9673 7.42657C50.9623 7.4297 50.9583 7.43409 50.9557 7.43929C50.9531 7.44448 50.952 7.45027 50.9525 7.45604C50.8663 7.44591 50.6358 7.89423 50.5782 7.94712L50.5814 7.95188C50.566 7.96155 50.5338 7.98104 50.559 7.99766C50.5482 8.00068 50.5388 8.0073 50.5326 8.01638C50.5263 8.02546 50.5235 8.03641 50.5247 8.0473C50.4933 8.03287 50.5034 8.09845 50.4992 8.11348C50.4248 8.12489 50.3253 8.36001 50.3054 8.42936C50.3018 8.53755 50.151 8.61371 50.1664 8.73248L50.173 8.73754C50.1277 8.78884 50.0708 9.06762 50.0132 9.07072L50.0145 9.08644C49.9835 9.1385 49.9591 9.19406 49.9419 9.25189C49.9279 9.25945 49.9429 9.28544 49.9218 9.28211C49.8575 9.38805 49.8095 9.50258 49.779 9.6221C49.8349 9.64151 49.7061 9.9243 49.6725 9.93284C49.6607 9.95596 49.5936 10.0926 49.5895 10.1083C49.5933 10.1118 49.3214 10.9709 49.4206 10.6046C49.3484 10.8593 49.0546 11.2485 49.0946 11.5327C49.037 11.6842 49.007 11.8444 49.0061 12.006C48.7499 12.7087 48.5559 13.3928 48.3104 14.0898C48.3055 14.1068 48.3 14.1237 48.2938 14.1403C48.2196 14.258 48.173 14.3904 48.1575 14.5278C48.1677 14.6633 48.0481 14.8078 48.0507 14.949C48.0404 14.9545 48.0411 14.9591 48.0527 14.9628C48.0324 14.9718 48.0317 14.9826 48.0507 14.9951C48.0111 14.9894 47.9934 15.1979 47.9834 15.2399C47.8776 15.5161 47.8155 15.8066 47.7992 16.1012C47.7928 16.1135 47.7948 16.1194 47.805 16.1191C47.8725 16.1342 47.7777 16.2162 47.7561 16.2227C47.7664 16.2187 47.6783 16.7322 47.6738 16.7719C47.6633 17.0234 47.62 17.2726 47.5448 17.5133V17.5133ZM49.7679 17.9417L49.7591 17.9408C49.6977 18.1461 49.6735 18.3604 49.6876 18.5738L49.6953 18.5761C49.6985 18.6548 49.6907 18.7336 49.6721 18.8103C49.7005 18.8368 49.6805 18.8852 49.6914 18.9161C49.6923 18.974 49.6803 19.0313 49.6564 19.0843C49.6204 19.265 49.6506 19.5551 49.6127 19.6037C49.6039 19.6034 49.5954 19.6001 49.5886 19.5946C49.5818 19.5891 49.5771 19.5815 49.5751 19.5731C49.263 19.8389 49.0472 20.0536 48.6415 19.9184C48.6415 19.9057 48.572 19.695 48.5681 19.6911C48.6265 19.3124 48.6402 18.9282 48.6089 18.5464L48.5974 18.5422C48.6303 18.3695 48.6509 18.1948 48.6592 18.0193C48.6723 17.988 48.6592 17.947 48.6693 17.9153L48.672 17.9166C48.6666 17.8567 48.6647 17.7965 48.6661 17.7364C48.7129 17.5461 48.73 17.35 48.7167 17.1547C48.6071 17.0984 48.8263 16.5168 48.7657 16.4103L48.7696 16.4013C48.8498 16.3922 48.9188 15.8526 49.0786 15.7962C49.0863 15.7486 49.1534 15.7174 49.191 15.7031C49.1871 15.7003 49.1836 15.6971 49.1805 15.6935C49.6775 15.0034 49.8553 15.9025 50.0284 15.8998C50.0341 15.9514 49.9237 15.8762 49.9429 16.0207C50.0178 16.6661 49.9581 17.3196 49.7675 17.9417H49.7679ZM49.9398 14.0352C49.9142 14.0352 49.8921 14.0725 49.8734 14.0771C49.8725 14.0972 49.8159 14.0806 49.8284 14.1062C49.8171 14.1095 49.8062 14.1138 49.7957 14.119C49.7938 14.1296 49.7732 14.1277 49.779 14.1405C49.7707 14.1428 49.7619 14.1422 49.754 14.1389L49.7582 14.1313C49.7487 14.1304 49.7391 14.1331 49.7315 14.1388C49.7239 14.1446 49.7188 14.153 49.7174 14.1623C49.6923 14.1823 49.6464 14.1564 49.6253 14.1572L49.6266 14.1502C49.6034 14.1478 49.5889 14.1597 49.562 14.1524C49.5515 14.1403 49.5383 14.142 49.5223 14.1576C49.5213 14.1549 49.5198 14.1523 49.5178 14.1502C49.5157 14.148 49.5133 14.1463 49.5106 14.1451C49.5147 14.1411 49.5185 14.137 49.522 14.1326C49.4806 14.0767 49.4414 14.142 49.4087 14.0443C49.3991 14.0433 49.3901 14.0389 49.3835 14.032C49.3769 14.025 49.3731 14.016 49.3728 14.0065C49.372 14.0165 49.3672 14.0184 49.3584 14.0122C49.3405 13.9483 49.3318 13.8821 49.3326 13.8158C49.3434 13.2891 49.9417 13.0977 50.3533 12.9965C50.3552 12.9995 50.3561 13.0029 50.356 13.0064C50.3796 12.992 50.4368 13.1683 50.437 13.1741C50.4513 13.201 50.467 13.2272 50.484 13.2526C50.4856 13.3055 50.4707 13.36 50.4752 13.4078C50.4775 13.4082 50.4796 13.4093 50.4812 13.411C50.4828 13.4126 50.4838 13.4148 50.484 13.417C50.4664 13.4328 50.4675 13.4474 50.4873 13.4609L50.4736 13.4615C50.4294 13.5239 50.3949 13.5924 50.3713 13.6647C50.3628 13.6647 50.1899 13.8549 50.1904 13.8577C50.1822 13.8551 50.1717 13.8622 50.1796 13.8705C50.1558 13.8846 50.0821 13.9524 50.0574 13.9536L50.0535 13.9607C50.0097 13.9758 49.9705 14.0014 49.9394 14.0352H49.9398ZM65.7754 13.2233C65.746 13.2708 65.7139 13.3166 65.6793 13.3606L65.6848 13.3593C65.6849 13.3622 65.6842 13.3651 65.683 13.3677C65.6818 13.3703 65.6801 13.3727 65.6779 13.3746C65.6757 13.3765 65.6732 13.378 65.6704 13.3789C65.6676 13.3798 65.6646 13.3801 65.6617 13.3798C65.653 13.3973 65.6719 13.4886 65.6398 13.4412C65.653 13.4671 65.4908 13.6492 65.4516 13.6662C65.2978 13.8249 63.9057 14.5527 63.7662 14.3722C63.7374 14.3892 63.3237 14.547 63.3314 14.5542C63.0021 14.7347 62.6623 14.896 62.3136 15.0372L62.3132 15.0311C62.2601 15.0875 62.1882 15.1235 62.1104 15.1325C62.0968 15.1778 61.9769 15.1744 61.9736 15.21C61.9648 15.209 61.956 15.2109 61.9485 15.2153C61.941 15.2198 61.9352 15.2266 61.9321 15.2347C61.9059 15.2394 61.8819 15.252 61.8635 15.2708C61.6739 15.3833 61.4749 15.4801 61.2687 15.5601C61.1947 15.5921 61.1265 15.6356 61.0669 15.6891C61.0519 15.6868 61.0365 15.6888 61.0227 15.695C61.0089 15.7011 60.9972 15.7111 60.9891 15.7236C60.865 15.7626 60.7504 15.8261 60.6524 15.9102C60.6365 15.9128 60.6221 15.9208 60.6118 15.9329C60.5672 15.9522 60.5237 15.9739 60.4815 15.9979C60.4892 16.0774 58.7286 16.9999 58.5707 17.0966C58.413 17.1523 58.2691 17.2398 58.1483 17.3534C58.1398 17.3467 58.1097 17.3755 58.0977 17.3803C58.097 17.4008 57.9736 17.4665 57.9722 17.4674C57.9722 17.5249 57.7424 17.527 57.756 17.6069C57.7523 17.6061 57.3319 17.8551 57.3362 17.8664C57.3199 17.8796 57.3004 17.885 57.2889 17.9026C57.217 17.937 57.1505 17.9814 57.0916 18.0344C57.0684 18.0503 57.0461 18.0669 57.024 18.084V18.0786C57.0138 18.084 57.0042 18.0904 56.9952 18.0975C56.9949 18.099 56.9944 18.1004 56.9936 18.1016C56.9927 18.1028 56.9917 18.1038 56.9904 18.1046C56.9891 18.1054 56.9877 18.1059 56.9862 18.1061C56.9848 18.1063 56.9832 18.1062 56.9818 18.1058L56.9753 18.1106C56.9717 18.1106 56.9682 18.1119 56.9656 18.1144C56.963 18.1168 56.9614 18.1202 56.9613 18.1238C56.9574 18.1254 56.9542 18.1282 56.9522 18.1318C56.9502 18.1354 56.9495 18.1396 56.9501 18.1436C56.9433 18.1436 56.9366 18.1455 56.9309 18.1493C56.9253 18.1531 56.9209 18.1584 56.9185 18.1647C56.8555 18.2211 56.7408 18.2738 56.6967 18.343C56.6843 18.3458 56.684 18.3395 56.6754 18.3333L56.6604 18.3571L56.6657 18.3589C56.6601 18.3731 56.6502 18.3852 56.6372 18.3935C56.6141 18.3999 56.607 18.4121 56.6167 18.43C56.6233 18.4857 56.6173 18.542 56.599 18.5951C56.6029 18.5951 56.628 18.8559 56.5852 18.8838C56.5912 18.8785 56.5574 19.3203 56.5641 19.3552C56.5675 19.3577 56.5704 19.3609 56.5725 19.3646C56.5745 19.3683 56.5757 19.3724 56.5761 19.3766C56.5764 19.3808 56.5757 19.385 56.5742 19.3889C56.5727 19.3928 56.5704 19.3964 56.5673 19.3994C56.5787 19.402 56.5897 19.4062 56.6 19.4118C56.5272 19.4479 56.5904 19.717 56.5716 19.834C56.5676 19.835 56.5643 19.8375 56.5622 19.8409C56.5601 19.8443 56.5595 19.8484 56.5604 19.8522C56.556 19.8634 56.5597 19.87 56.5716 19.8721C56.5655 19.87 56.5698 19.9306 56.5764 19.9447C56.5749 19.9531 56.5706 19.9607 56.5641 19.9665C56.5316 20.0357 56.6012 20.184 56.5718 20.2289C56.5674 20.2335 56.5639 20.2388 56.5617 20.2447C56.5594 20.2506 56.5584 20.2569 56.5587 20.2631C56.5436 20.2687 56.5457 20.2745 56.5649 20.2804C56.5679 20.2702 56.5721 20.2697 56.5777 20.2792C56.58 20.2928 56.5986 20.295 56.5951 20.3044L56.5904 20.3141C56.5864 20.3177 56.5833 20.3223 56.5814 20.3273C56.5794 20.3323 56.5787 20.3377 56.5792 20.3431C56.5798 20.3484 56.5816 20.3536 56.5845 20.3581C56.5874 20.3627 56.5913 20.3665 56.596 20.3694C56.5874 20.3684 56.5788 20.3692 56.5706 20.3718C56.5624 20.3744 56.5549 20.3787 56.5486 20.3845C56.565 20.3964 56.5621 20.4096 56.5398 20.4242C56.5424 20.4354 56.5384 20.4411 56.5274 20.4415V20.443C56.5407 20.4128 56.5625 20.476 56.5649 20.4856C56.5686 20.4856 56.5712 20.4834 56.5744 20.4847C56.571 20.4974 56.5728 20.5109 56.5794 20.5224C56.5809 20.5385 56.5815 20.5546 56.581 20.5707C56.5722 20.6196 56.5668 20.669 56.5649 20.7186C56.5645 20.7195 56.5643 20.7204 56.5643 20.7214C56.5643 20.7223 56.5645 20.7233 56.565 20.7241C56.5654 20.725 56.5661 20.7257 56.5669 20.7262C56.5677 20.7268 56.5686 20.7271 56.5696 20.7273C56.5665 20.7749 56.5504 20.7169 56.5656 20.7721C56.5655 20.7741 56.5661 20.7762 56.5672 20.7779C56.5684 20.7797 56.5702 20.781 56.5722 20.7817C56.5571 20.8095 56.5529 20.8417 56.5604 20.8723C56.557 20.8941 56.5792 20.963 56.5587 20.9773C56.5477 20.9761 56.5423 20.9807 56.5424 20.9907C56.5771 21.0169 56.5601 21.0627 56.5431 21.0965V21.1221C56.5373 21.1484 56.5585 21.129 56.5408 21.1743C56.5295 21.1911 56.6227 21.3103 56.5485 21.3468C56.5639 21.3375 56.5428 21.4876 56.5384 21.4844C56.5477 21.4919 56.5496 21.5098 56.5671 21.5196C56.5605 21.5307 56.5527 21.5411 56.5439 21.5506L56.553 21.557C56.6539 21.6282 56.5326 21.6309 56.5148 21.6658C56.5155 21.6757 56.5135 21.6856 56.5092 21.6946C56.5097 21.7306 56.5073 21.7665 56.5021 21.8021C56.4866 21.8394 56.5198 21.8248 56.5207 21.8518C56.4837 21.8367 56.6644 21.8901 56.5737 21.9139C56.5081 21.9329 56.5389 22.0474 56.4844 22.1337C56.4854 22.1429 56.5046 22.2517 56.5076 22.32C56.565 22.342 56.5313 22.3904 56.5385 22.4243C56.5823 22.4588 56.5676 22.4234 56.5915 22.4358C56.5941 22.4511 56.5941 22.4667 56.5915 22.4819C56.594 22.4829 56.5938 22.4808 56.5975 22.4831C56.613 22.4323 56.464 22.8495 56.5718 22.7481C56.5564 22.7632 56.4221 22.8272 56.5045 22.8867C56.5228 22.8788 56.5724 22.8504 56.5698 22.8611C56.5421 22.9287 56.5852 22.9079 56.6028 22.9476C56.5766 22.9823 56.4578 23.1151 56.5642 23.1645C56.5642 23.176 56.5583 23.1856 56.557 23.1965C56.5704 23.2029 56.5779 23.2051 56.5887 23.1965C56.6008 23.21 56.5959 23.2147 56.5867 23.2279L56.5978 23.2307C56.6178 23.2092 56.6572 23.2251 56.6358 23.2467C56.619 23.2749 56.5419 23.4216 56.6396 23.3796C56.6396 23.4453 56.6432 23.511 56.6504 23.5764C56.6848 23.5716 56.6915 23.5795 56.6707 23.6C56.6667 23.6149 56.6667 23.6305 56.6707 23.6454C56.6792 23.6577 56.6783 23.6678 56.668 23.6756C56.6667 23.6798 56.6668 23.677 56.6657 23.6794C56.6564 23.6809 56.6585 23.6952 56.6657 23.6794C56.6714 23.6149 56.6287 23.7411 56.6233 23.7652C56.6256 23.7724 56.6254 23.7802 56.6226 23.7872C56.6506 23.7467 56.6248 23.8628 56.6276 23.8657C56.6343 23.8659 56.6407 23.868 56.6462 23.8717C56.6517 23.8755 56.6559 23.8807 56.6585 23.8867C56.6618 23.8993 56.6703 23.9035 56.6839 23.8995C56.6729 23.9053 56.7627 23.8466 56.7113 23.8887C56.704 23.9012 56.7078 23.9053 56.7224 23.9009C56.7264 23.9092 56.7336 23.9156 56.7424 23.9188C56.7564 23.9414 56.7256 23.9782 56.7264 23.9786C56.718 23.9842 56.7186 23.9896 56.728 23.9949V24.0014L56.7371 24.002C56.7575 24.0426 56.7656 24.0882 56.7603 24.1332C56.7628 24.1337 56.7654 24.1336 56.7678 24.1328C56.7702 24.1321 56.7725 24.1308 56.7743 24.129C56.7726 24.1354 56.7721 24.142 56.7729 24.1485C56.7831 24.1561 56.7899 24.141 56.7978 24.1501C56.7903 24.1709 56.7947 24.1719 56.8109 24.1534C56.7933 24.1685 56.7959 24.1807 56.8186 24.1908C56.7991 24.2223 56.7431 24.2648 56.778 24.2954C56.7813 24.2929 56.626 24.3269 56.6879 24.3357C56.6886 24.3387 56.6903 24.3413 56.6926 24.3432C56.695 24.3452 56.6979 24.3464 56.701 24.3466C56.7152 24.311 56.7342 24.3099 56.7581 24.3435L56.7672 24.339L56.7695 24.3419C56.7243 24.3927 56.7078 24.3471 56.7 24.3927L56.6908 24.3959C56.7072 24.3995 56.7099 24.4079 56.699 24.4212C56.6652 24.4456 56.7127 24.6374 56.782 24.5102C56.8129 24.5114 56.7939 24.5771 56.8006 24.5879C56.8074 24.5619 56.8185 24.5608 56.834 24.5848C56.8465 24.5944 56.8572 24.6061 56.8656 24.6193C56.8615 24.6334 56.8018 24.6308 56.7817 24.642C56.7682 24.6231 56.9024 24.6765 56.8571 24.6765C56.8553 24.6731 56.9771 24.727 56.8836 24.7369C56.8931 24.6796 56.8555 24.7233 56.8702 24.7248C56.8689 24.7285 56.8667 24.7318 56.8638 24.7346C56.8609 24.7373 56.8574 24.7394 56.8536 24.7405C56.8497 24.7417 56.8457 24.742 56.8417 24.7414C56.8377 24.7408 56.834 24.7392 56.8307 24.7369C56.8348 24.7413 56.8402 24.7442 56.8462 24.7452C56.8714 24.7659 56.8673 24.7788 56.8341 24.7837C56.8663 24.8632 56.7595 24.779 56.7675 24.7776C56.7675 24.7829 56.769 24.7881 56.7717 24.7927L56.764 24.7965C56.7931 24.8218 56.7803 24.8095 56.8201 24.824C56.8272 24.8279 56.833 24.8336 56.8368 24.8406C56.8406 24.8476 56.8423 24.8555 56.8417 24.8634C56.8402 24.8469 56.7469 24.9218 56.8048 24.9258C56.805 24.9281 56.8044 24.9305 56.8031 24.9325C56.8018 24.9344 56.7999 24.9359 56.7976 24.9367C56.8066 24.9352 56.8158 24.9363 56.8242 24.9398C56.8326 24.9434 56.8398 24.9492 56.8449 24.9566L56.8499 24.9581C56.8505 24.9664 56.8433 24.9693 56.8384 24.9748C56.8469 24.9831 56.8596 24.9673 56.8596 24.9581C56.8673 24.9641 56.8416 25.052 56.8717 25.0452C56.8717 25.0405 56.873 25.0358 56.8753 25.0317C56.9104 25.0351 56.9305 25.0839 56.9456 25.0487C56.9544 25.0551 56.9515 25.0714 56.9413 25.0833C56.8866 25.0917 56.9018 25.1542 56.8646 25.1716C56.8767 25.1783 56.8882 25.1861 56.8989 25.195C56.8962 25.1898 56.8479 25.237 56.8463 25.2398C56.838 25.2981 56.8651 25.3276 56.9276 25.3281C56.924 25.3458 56.8402 25.372 56.8326 25.3831C56.3768 25.8297 55.8439 25.9932 55.5521 25.2714L55.543 25.2708C55.5288 25.5635 55.4705 24.8787 55.4806 24.874C55.4844 24.8626 55.4876 24.6979 55.4701 24.6935C55.5169 24.4746 55.5238 24.2494 55.4907 24.0281C55.5003 23.7869 55.524 21.8138 55.5616 21.8088C55.5572 21.7753 55.561 21.7412 55.573 21.7095C55.5698 21.679 55.5647 21.6487 55.5575 21.6188C55.557 21.6173 55.5567 21.6157 55.5568 21.6141C55.5569 21.6125 55.5573 21.6109 55.558 21.6094C55.5588 21.608 55.5598 21.6067 55.561 21.6056C55.5622 21.6045 55.5637 21.6037 55.5652 21.6032L55.5636 21.5993L55.5594 21.5987C55.5222 21.2988 55.5265 20.9954 55.5721 20.6966C55.6514 20.6707 55.5228 19.821 55.5655 19.7C55.6042 19.691 55.5453 19.1862 55.5815 19.1182L55.5783 19.1144C55.3781 19.2226 54.9494 19.7334 54.7271 19.6949C54.756 19.7518 54.3846 19.8951 54.39 19.9663C54.2855 20.015 54.1582 20.244 54.0316 20.2399L54.031 20.2374C54.0233 20.2374 54.0199 20.2422 54.0215 20.2492C53.9999 20.2538 53.9805 20.2653 53.9663 20.2819L53.968 20.2799C53.475 20.9347 52.5132 21.3181 51.932 21.9201L51.93 21.9143C51.7947 22.0041 51.1381 22.5011 51.1483 22.6472C50.7979 22.7702 50.3622 23.3904 50.1338 23.6438L50.1247 23.6392C50.0818 23.6758 49.8326 23.8972 49.8483 23.9301C49.8003 23.9897 49.7422 24.0408 49.6765 24.0812C49.6735 24.0834 49.6709 24.0861 49.6689 24.0892C49.667 24.0923 49.6657 24.0958 49.6651 24.0994C49.5461 24.243 48.6725 24.9686 48.6937 25.0781C48.025 25.5153 47.9753 24.7928 47.7098 24.4774C47.7147 24.4675 47.731 24.4512 47.716 24.4445C47.7664 23.963 48.4084 23.5417 48.7519 23.2571C49.1713 22.9096 49.6109 22.2845 50.1165 22.105C50.1165 22.0899 50.2609 21.9948 50.2455 22.0014C50.2732 21.8917 50.8708 21.5054 50.8662 21.5021C50.9104 21.4479 51.207 21.2611 51.1823 21.1987C51.2219 21.1878 51.3728 21.1018 51.3728 21.0521C51.3865 21.0457 51.3822 21.062 51.396 21.0617C51.3888 21.0281 51.4711 21.0288 51.4557 20.9937C51.923 20.9232 52.3278 20.1687 52.762 19.9616C52.761 19.9584 52.763 19.9533 52.762 19.9498C52.8257 19.9259 52.935 19.7956 52.9881 19.7942C52.9881 19.7984 52.9913 19.8017 52.991 19.8061C53.0324 19.8026 53.0731 19.7172 53.1236 19.7165C53.111 19.6519 53.3183 19.6296 53.3167 19.5638C53.2813 19.5805 53.4712 19.4677 53.5016 19.4367L53.501 19.4313C53.5263 19.4186 53.9375 19.1713 53.9288 19.1238C53.9485 19.1238 54.098 19.0273 54.0938 19.0073C54.2012 18.9587 54.2976 18.8896 54.3773 18.804C54.6599 18.6876 54.8757 18.3212 55.1756 18.2315L55.1707 18.2286C55.1766 18.2251 55.1756 18.2229 55.1838 18.2223C55.2006 18.1407 55.4832 18.0012 55.5672 17.9608V17.9532C55.5634 17.9532 55.5676 17.9526 55.5637 17.9516C55.5637 17.929 55.5646 17.9063 55.5663 17.8836C55.5701 17.8665 55.5721 17.849 55.5722 17.8315C55.5907 17.83 55.5838 17.7711 55.5855 17.7601C55.5785 17.7541 55.5734 17.7462 55.571 17.7374C55.5686 17.7285 55.569 17.7192 55.5722 17.7106C55.5905 17.5867 55.5812 17.4604 55.5451 17.3404L55.53 17.3388C55.517 17.3381 55.5041 17.3417 55.4935 17.3491C55.4829 17.3565 55.4752 17.3672 55.4715 17.3794C55.3664 17.4499 55.269 17.5079 55.1652 17.5673C55.1675 17.5991 54.9866 17.6217 54.9558 17.6335C54.9553 17.6372 54.956 17.641 54.9578 17.6444C54.9595 17.6477 54.9622 17.6505 54.9656 17.6524C54.9603 17.6721 54.7676 17.6757 54.8745 17.7039C54.8718 17.7201 54.765 17.7138 54.7501 17.7039C54.7288 17.6821 54.7166 17.6819 54.7135 17.7033C54.6707 17.7223 54.401 17.7335 54.3943 17.7557L54.3937 17.7616C54.3699 17.7712 54.3368 17.7513 54.3146 17.7641L54.3156 17.7717C54.3135 17.773 54.3111 17.7738 54.3086 17.7742C54.3062 17.7745 54.3037 17.7743 54.3013 17.7736L54.3009 17.766C54.1946 17.7705 54.0852 17.7131 53.9854 17.7207C53.9909 17.7268 53.9867 17.7271 53.9874 17.7341C53.9135 17.6952 53.8422 17.6517 53.774 17.6039L53.7678 17.6138C53.7037 17.5154 53.6329 17.4213 53.5559 17.3322C53.5589 17.3291 53.4691 16.8754 53.4608 16.8669C53.4653 16.8675 53.4673 16.8649 53.4705 16.8643C53.4505 16.7262 53.5609 16.0156 53.448 15.9535C53.427 15.8301 53.6096 15.2999 53.5186 15.2591C53.4901 15.2149 53.5691 15.0405 53.5675 14.9886C53.568 14.9886 53.6863 14.4806 53.6989 14.4158C53.7638 14.2549 53.838 14.0979 53.9213 13.9454L53.929 13.9469C53.9321 13.9283 53.9934 13.8078 54.0179 13.8052C54.0195 13.8021 54.0635 13.7296 54.0708 13.7344C54.1706 13.5389 54.3266 13.3761 54.5196 13.266C54.5258 13.2561 54.5342 13.2477 54.544 13.2412C54.5539 13.2346 54.565 13.2302 54.5767 13.2282C54.5823 13.2241 54.5754 13.2116 54.5895 13.218C54.6278 13.1993 54.6625 13.174 54.6918 13.1435C54.7009 13.1431 54.7149 13.1359 54.7139 13.1275C54.8108 13.0506 54.9324 13.0098 55.0571 13.0124C55.1818 13.015 55.3015 13.0607 55.395 13.1415L55.4012 13.1386C55.4174 13.1802 55.4206 13.2256 55.4104 13.2689C55.4109 13.2809 55.4087 13.2928 55.4041 13.3039C55.3995 13.315 55.3925 13.325 55.3836 13.3332C55.4617 13.3483 55.3087 13.5168 55.3527 13.5393C55.3553 13.5166 55.2916 13.6136 55.2986 13.6101C55.295 13.619 55.2872 13.6296 55.2979 13.635C55.2946 13.6491 55.2796 13.6449 55.2688 13.6453C55.26 13.6796 55.2433 13.7115 55.2202 13.7387C55.2149 13.7539 55.1976 13.7438 55.1921 13.7588C55.1781 13.7783 55.1571 13.7918 55.1333 13.7966L55.1346 13.8062L55.129 13.8069L55.1244 13.8152C55.092 13.7866 55.0483 13.9724 55.0499 13.9432C55.0446 13.9432 55.0393 13.9427 55.034 13.9419C55.0307 13.9762 55.0137 13.9711 54.9895 13.9906L54.9873 13.9867C54.9678 14.0056 54.9544 14.0296 54.9487 14.0559C54.9404 14.0696 54.937 14.0855 54.9389 14.1012L54.9421 14.1019C54.9334 14.1122 54.9271 14.1321 54.9173 14.1404C54.8983 14.096 54.8835 14.202 54.8667 14.1995C54.868 14.2106 54.8666 14.2218 54.8625 14.2322C54.8494 14.228 54.8418 14.2542 54.8406 14.2651C54.7214 14.2959 54.6348 15.0695 54.5822 15.0745C54.5697 15.0821 54.5715 15.22 54.606 15.2162C54.6196 15.2382 54.6259 15.2638 54.6242 15.2894C54.6226 15.3151 54.6129 15.3396 54.5966 15.3598C54.5383 15.6455 54.3862 16.1791 54.5802 16.4447C54.7431 16.6676 55.093 16.7792 55.273 16.4943L55.2821 16.4991C55.3798 16.416 55.8383 15.4214 55.6497 15.3284C55.6529 15.3304 55.6559 15.3284 55.6588 15.3297C55.7276 15.1388 55.6387 14.8543 55.7206 14.6806C55.7206 14.6504 55.7201 14.6207 55.7189 14.5908C55.7265 13.9509 55.8074 13.3137 55.96 12.6914C55.9545 12.6869 55.9571 12.6866 55.9574 12.6809C55.9613 12.6805 55.9642 12.6779 55.9681 12.6786C56.0073 12.6135 56.0661 12.5619 56.1365 12.5308C56.1376 12.5282 56.1395 12.526 56.1418 12.5244C56.1442 12.5228 56.147 12.5219 56.1498 12.5218C56.154 12.5369 56.1762 12.5173 56.1874 12.515C56.2084 12.2175 56.8641 12.6198 56.9422 12.7148C56.9479 12.6991 56.8547 12.9463 56.9181 12.9516C56.9061 13.0145 56.9009 13.0785 56.9026 13.1426C56.8815 13.1426 56.9062 13.6653 56.8846 13.7183C56.8151 13.7264 56.9082 13.7193 56.8692 13.7743C56.8634 13.7733 56.8581 13.7706 56.8537 13.7668C56.8214 13.7879 56.8673 13.876 56.8727 13.8401C56.9067 13.8589 56.8514 13.8746 56.8407 13.8778C56.8201 14.2027 56.7783 14.5251 56.7724 14.867C56.7598 14.9497 56.7541 15.0333 56.7554 15.117V15.1182C56.7355 15.2435 56.7249 15.37 56.7237 15.4968C56.7368 15.5597 56.6465 15.711 56.7217 15.7461C56.7216 15.7484 56.7211 15.7506 56.7201 15.7527C56.7191 15.7547 56.7177 15.7566 56.7159 15.7581C56.7142 15.7596 56.7122 15.7608 56.71 15.7615C56.7078 15.7623 56.7055 15.7626 56.7032 15.7625C56.7081 15.7384 56.6904 16.2536 56.6963 16.2361C56.6731 16.2804 56.6969 16.3612 56.6891 16.3964C56.6826 16.3991 56.6767 16.3959 56.6691 16.3971C56.6653 16.4105 56.6565 16.4615 56.678 16.4621C56.6793 16.4701 56.6477 16.4986 56.678 16.4918C56.6851 16.6265 56.7558 17.0898 56.6394 17.1882C56.6491 17.2051 56.653 17.2246 56.6505 17.2439C56.6989 17.2439 56.7156 17.2237 56.7514 17.1917C57.1678 16.8693 57.6196 16.5931 58.0985 16.3682L58.0907 16.3635C58.0919 16.3214 58.3938 16.178 58.4196 16.157V16.1577C58.5857 15.9163 59.0761 15.8191 59.3276 15.6666C59.328 15.664 59.329 15.6614 59.3304 15.6592C59.3318 15.6569 59.3336 15.6549 59.3358 15.6533C59.338 15.6517 59.3405 15.6506 59.3431 15.65C59.3458 15.6493 59.3485 15.6492 59.3512 15.6496C59.3584 15.6408 59.3676 15.6338 59.378 15.6291C59.9455 15.4901 60.3558 14.9643 60.9083 14.7724C60.9171 14.7208 61.1613 14.654 61.1895 14.6246L61.185 14.6194C61.4754 14.2699 62.2131 14.3236 62.2788 13.8386C62.2927 13.736 62.0791 13.3132 62.0626 13.1387C62.0292 12.7808 62.1974 12.4292 62.1434 12.0672C62.1389 12.0672 62.1346 12.065 62.1297 12.0653C62.0872 11.943 62.2171 11.7146 62.1735 11.566C61.9584 11.4597 62.2761 11.1238 62.1073 10.985C61.7812 10.7168 61.6663 11.0969 61.3957 11.1785C61.401 11.1268 61.0164 11.7771 61.0655 11.6816C61.0682 11.6901 61.0676 11.6994 61.0639 11.7075C61.0476 11.697 61.0375 11.7 61.0338 11.7171C61.0408 11.759 61.0414 11.8015 61.0357 11.8435C61.0224 11.8657 61.0517 11.8971 61.0159 11.9111C61.0221 11.9035 61.0203 12.0488 60.9806 12.0071C60.9993 11.9892 60.9706 12.0902 60.9793 12.0851C60.9849 12.1266 60.9699 12.1347 60.9329 12.1553C60.9447 12.1531 60.9569 12.1546 60.9677 12.1595C60.9786 12.1644 60.9875 12.1726 60.9934 12.1828C60.9638 12.235 60.9376 12.2891 60.915 12.3447C60.9528 12.3932 60.9492 12.4637 60.9073 12.4849C60.9321 12.5172 60.8723 12.5028 60.8609 12.5159C60.8708 12.5311 60.8864 12.5326 60.8854 12.553C60.8777 12.5705 60.8645 12.5706 60.8456 12.5537C60.8435 12.5643 60.8435 12.5751 60.8456 12.5857L60.8512 12.5879C60.8366 12.6059 60.8387 12.6204 60.8577 12.6315C60.8453 12.5845 60.9332 12.7346 60.92 12.723C60.9071 12.7446 60.9493 12.9085 60.866 12.8689C60.8558 12.7283 60.8516 12.9218 60.8368 12.9195C60.8435 12.9578 60.8133 12.9638 60.8578 12.9863C60.8506 13.0014 60.8695 13.0023 60.867 13.0171C60.8634 13.015 60.8594 13.0136 60.8552 13.0131C60.851 13.0126 60.8468 13.013 60.8428 13.0142C60.8388 13.0154 60.8351 13.0174 60.832 13.0201C60.8288 13.0228 60.8262 13.0261 60.8245 13.0298C60.7971 13.1684 60.8013 13.3661 60.8542 13.3819L60.8575 13.3874L60.8597 13.3835C60.8647 13.3823 60.87 13.3828 60.8748 13.3848C60.8779 13.4075 60.8614 13.5526 60.8593 13.5839C60.7898 13.617 60.8065 13.5889 60.8545 13.6123C60.7933 13.7421 60.8646 13.8041 60.807 13.8302C60.7987 13.8976 60.8572 13.9523 60.8528 14.0191C60.8142 14.0245 60.7952 14.1209 60.763 14.1173C60.7453 14.1554 60.7308 14.1947 60.7195 14.235C60.715 14.2356 60.7126 14.2392 60.7087 14.2406C60.7218 14.2732 60.6733 14.3744 60.661 14.3614L60.6688 14.3602C60.6818 14.3723 60.6433 14.3807 60.6367 14.3666L60.6311 14.3685C60.6115 14.6775 59.8226 14.7347 59.7169 14.4546C59.7022 14.2021 59.701 13.949 59.7133 13.6964C59.7205 13.6675 59.7224 13.6374 59.7189 13.6078L59.7104 13.6033C59.7208 13.5661 59.7251 13.5275 59.7231 13.489L59.7277 13.4827L59.7218 13.4785C59.7059 13.3848 59.6796 12.8095 59.7718 12.729C59.7669 12.7181 59.7554 12.7078 59.7679 12.6983C59.7316 12.6519 59.7833 12.5409 59.7744 12.4909C59.7793 12.4855 59.778 12.4893 59.7744 12.4841C59.6687 11.9485 59.7602 11.3935 60.0328 10.9175C60.2499 10.6725 60.4637 10.6946 60.7556 10.6157C61.022 10.5438 61.3653 10.4042 61.634 10.3531L61.6311 10.3456C61.7657 10.1265 61.9705 9.95693 62.2137 9.8633C62.4569 9.76967 62.7249 9.75717 62.9761 9.82775C62.9784 9.83402 63.0875 9.92596 63.0765 9.92596C63.0982 9.87701 63.1475 10.0292 63.1517 10.0709C63.1578 10.0742 63.2189 10.1994 63.251 10.2467C63.2455 10.2591 63.217 10.2499 63.2059 10.2502C63.2123 10.2267 63.3122 10.7639 63.2144 10.7158C63.2144 10.7117 63.2453 10.8583 63.2562 10.8772C63.2771 10.8772 63.2647 10.9107 63.2876 10.8915C63.2847 10.8613 63.2169 11.0306 63.2367 11.0083C63.2498 11.0376 63.2289 11.1309 63.2801 11.1482C63.2765 11.1506 63.2738 11.154 63.2721 11.1579C63.2704 11.1618 63.2699 11.166 63.2706 11.1702C63.2472 11.1712 63.2238 11.1703 63.2007 11.1674C63.1911 11.2069 63.1901 11.2479 63.1976 11.2879C63.2052 11.3278 63.2211 11.3658 63.2445 11.3994C63.2032 11.3574 63.1929 11.9874 63.1923 11.9995C63.203 12.0406 63.2085 12.0728 63.1834 12.0901C63.1602 12.1644 63.2903 12.2703 63.2374 12.348C63.2317 12.4346 63.1125 12.803 63.2459 12.8623C63.2479 12.8699 63.2002 12.9132 63.232 12.9106C63.2327 12.9153 63.337 13.0764 63.2388 13.0646C63.2466 13.0909 63.2608 13.094 63.2815 13.0739C63.2985 13.0691 63.2893 13.0915 63.3047 13.0927C63.3057 13.1002 63.3055 13.1079 63.3041 13.1154C63.3034 13.1169 63.3057 13.1195 63.3047 13.1229L63.2995 13.1284C63.2798 13.1754 63.4271 13.287 63.4524 13.2916L63.4514 13.3005C63.4876 13.2979 63.7905 13.3001 63.7947 13.2311C64.4564 13.0684 63.921 13.1654 64.0155 13.1284C64.0902 13.1065 64.1605 13.0722 64.2232 13.027C64.2278 13.0311 64.2334 13.0327 64.2377 13.0285C64.2314 13.0163 64.2625 13.0163 64.2663 13.0039C64.3735 12.971 64.4727 12.9174 64.5581 12.8461L64.5646 12.8512C64.6491 12.8004 64.7384 12.7574 64.8311 12.7228C64.8572 12.5739 65.412 12.7277 65.4854 12.7043C65.4777 12.6963 65.4671 12.6953 65.47 12.6812C65.4828 12.6825 65.4899 12.6979 65.4984 12.6812C65.5014 12.6943 65.5087 12.7061 65.5192 12.7148C65.5297 12.7234 65.5428 12.7285 65.5565 12.7292C65.5575 12.7193 65.5467 12.7202 65.546 12.7109C65.6342 12.6958 65.6729 12.9266 65.7362 12.9322C65.7362 12.9408 65.822 13.1583 65.7761 13.1529C65.7643 13.1808 65.7726 13.1971 65.8009 13.2019C65.7988 13.2099 65.7822 13.2242 65.775 13.2233H65.7754Z" fill="#687076"/>
<path d="M153.407 1.4348C152.069 5.59209 150.395 9.63877 148.402 13.5366C146.534 17.2642 144.366 20.8406 141.918 24.2318L137.398 30.3965H134.019L139.932 22.5768L128.4 1.4348H131.569L141.707 20.053C143.504 17.2807 145.106 14.3916 146.501 11.4059C148.051 8.17032 149.384 4.83959 150.493 1.4348H153.407ZM96.086 27.9968H94.6499L83.2869 4.37234C82.2449 2.13817 80.6398 1.02107 78.4714 1.02107C77.8515 0.996907 77.2331 1.09837 76.6552 1.31909C76.0773 1.53981 75.5523 1.87502 75.1132 2.30366C74.6818 2.7422 74.3453 3.26139 74.1239 3.83013C73.9026 4.39887 73.8008 5.00546 73.8248 5.61357V30.3965H76.6127V5.69631C76.5897 5.15589 76.7701 4.62598 77.1196 4.20685C77.2723 4.02279 77.4656 3.87503 77.6852 3.77469C77.9047 3.67436 78.1446 3.62406 78.3869 3.62761C79.2596 3.62761 80.0199 4.31718 80.6679 5.69631L92.5378 30.3965H98.874V1.4348H96.086L96.086 27.9968ZM107.556 16.9914H123.965V14.4676H107.556V3.99997H125.19V1.4348H104.768V30.3965H125.317V27.8313H107.556V16.9914Z" fill="#687076"/>
</svg>
