<svg width="49" height="66" viewBox="0 0 49 66" fill="none" xmlns="http://www.w3.org/2000/svg">
<path d="M12.8014 60.2207H18.18V65.5H12.8014V60.2207ZM30.4544 65.5H43.8939V60.2207H30.4544V65.5ZM0.5 44.0239H26.9996V38.7447H0.5V44.0239ZM21.6347 65.5H27.0132V47.4149H21.6347V65.5ZM18.1665 24.7422V16.3512L2.50508 35.3537H9.42812L18.1665 24.742V24.7422ZM31.2536 0.5L30.4546 1.47083V9.86181L35.4404 3.81129L31.2536 0.500115V0.5ZM39.2876 38.7446V44.0238H48.5V38.7446H39.2876ZM35.8329 8.71816L30.4544 15.234V56.8297H35.8329V8.71828V8.71816ZM21.6347 35.3536H27.0132V5.64652L21.6347 12.1623V35.3537V35.3536Z" fill="#687076"/>
</svg>
