<svg width="111" height="34" viewBox="0 0 111 34" fill="none" xmlns="http://www.w3.org/2000/svg">
<path d="M30.0554 16.5115H24.8844C23.7853 16.5115 22.7659 15.8415 22.4409 14.8388C21.5048 12.036 18.8173 11.031 18.8173 11.031C17.8401 10.655 17.1069 9.69456 17.1069 8.5233V3.2104C17.1069 1.75086 18.2882 0.579597 19.7124 0.579597C21.1376 0.579597 22.2779 1.66656 22.2779 3.2104L22.2379 7.47622L28.2231 1.33267C29.2413 0.285594 30.8695 0.285594 31.8878 1.33267C32.906 2.37293 32.906 4.08772 31.8878 5.1348L25.9825 11.1576H30.0554C31.4818 11.1576 32.6609 12.371 32.6609 13.8328C32.6609 15.298 31.4818 16.5115 30.0554 16.5115ZM30.0144 22.9466L25.8616 22.9056L31.8467 29.0537C32.865 30.0996 32.865 31.7722 31.8467 32.8193C30.8296 33.8641 29.2003 33.8641 28.1831 32.8193L22.2779 26.7533V30.9348C22.2779 32.5253 21.0977 33.6134 19.6713 33.6134C18.2471 33.6134 17.0659 32.4 17.0659 30.9348V25.6242C17.0659 24.4939 17.758 23.4468 18.7363 23.1141C21.4638 22.1513 22.3999 19.3952 22.3999 19.3952C22.7659 18.3925 23.7442 17.6394 24.8434 17.6394H30.0144C31.4397 17.6394 32.6209 18.854 32.6209 20.3147C32.6209 21.7753 31.5628 22.9466 30.0144 22.9466V22.9466ZM13.3645 33.5713C11.9393 33.5713 10.799 32.6085 10.839 30.9348L10.88 26.6689L4.89486 32.8193C3.87775 33.8641 2.20734 33.8641 1.23126 32.8193C0.211929 31.7722 0.211929 30.0563 1.23126 29.0537L7.09324 22.9877H3.06251C1.59618 22.9877 0.457059 21.7753 0.457059 20.3147C0.457059 18.854 1.59618 17.6394 3.06251 17.6394H8.2346C9.33269 17.6394 10.311 18.3094 10.677 19.312C11.6132 22.1513 14.2596 23.1141 14.2596 23.1141C15.2767 23.4901 15.9711 24.4529 15.9711 25.6242V30.9348C15.9711 32.4 14.8297 33.5713 13.3645 33.5713H13.3645ZM14.3007 11.0743C11.5721 12.0781 10.636 14.7956 10.636 14.7956C10.2688 15.7993 9.29274 16.5536 8.19243 16.5536H3.02147C1.59618 16.5536 0.416016 15.3401 0.416016 13.8761C0.416016 12.4131 1.3932 11.2418 3.02147 11.2418L7.17643 11.2828L1.18912 5.1348C0.170893 4.08772 0.170893 2.41628 1.18912 1.37372C2.20734 0.327776 3.8356 0.327776 4.85382 1.37372L10.758 7.43516V3.25258C10.758 1.79304 11.8982 0.579597 13.3645 0.579597C14.7887 0.579597 15.9289 1.79304 15.9289 3.25258V8.56317C15.9289 9.69457 15.2767 10.7382 14.3007 11.0743" fill="#687076"/>
<path d="M98.4077 33.7793C95.6392 33.7793 92.1386 33.3213 90.3894 32.7767L91.7748 26.9192C93.0326 27.5059 95.8433 28.4254 98.4077 28.4254C101.503 28.4254 103.824 27.0456 103.824 24.2417C103.824 21.8592 102.397 20.607 98.4077 19.021C94.337 17.3894 90.9596 15.3807 90.9596 9.44233C90.9596 3.62809 95.4351 0.411621 102.235 0.411621C105.126 0.411621 108.058 0.997301 109.809 1.58295L108.466 7.26724C107.284 6.59843 105.004 5.76099 102.235 5.76099C98.9367 5.76099 97.4715 7.05875 97.4715 9.27369C97.4715 11.5342 99.0998 12.3705 102.641 13.9599C107.53 16.094 110.584 18.2257 110.584 23.8235C110.584 30.0148 105.778 33.7793 98.4077 33.7793V33.7793ZM76.5458 19.1452H72.8023V28.5086H76.7488C79.8445 28.5086 82.2459 27.2541 82.2459 23.7847C82.2459 20.607 80.0076 19.1452 76.5458 19.1452V19.1452ZM76.5857 5.80431H72.8023V14.2949H76.3007C78.9483 14.2949 81.2288 12.8308 81.2288 9.90262C81.2288 7.14079 79.5994 5.80431 76.5857 5.80431V5.80431ZM76.9118 33.4888H66.6542V0.829776H77.4409C83.6312 0.829776 87.703 3.92207 87.703 9.35914C87.703 13.208 85.2185 15.3807 82.857 16.3435C86.1147 17.2219 88.7612 19.5212 88.7612 23.8235C88.7612 29.5135 84.4864 33.4888 76.9118 33.4888V33.4888ZM50.9405 5.84531H47.8048V15.1722H50.2483C53.547 15.1722 55.9451 13.7081 55.9451 10.5293C55.9451 7.72641 54.1937 5.84531 50.9405 5.84531V5.84531ZM56.8413 33.4888C54.9269 29.5135 51.4707 23.239 49.4331 19.9804H47.8048V33.4888H41.6966V0.829776H51.7557C58.3886 0.829776 62.3384 4.08836 62.3384 10.6124C62.3384 15.0879 59.2027 17.8486 55.9063 18.9789C58.0226 21.9424 62.0944 29.2207 64.1297 33.4888H56.8413Z" fill="#687076"/>
</svg>
