<svg width="155" height="32" viewBox="0 0 155 32" fill="none" xmlns="http://www.w3.org/2000/svg">
<path d="M16.076 0.720321H7.01197V1.45418H9.95054V16.3969C9.95054 20.9289 8.7264 22.153 5.9104 22.153C4.19597 22.153 3.82826 20.8063 3.82826 20.1935C3.82826 18.6016 3.70569 17.5 2.23483 17.5C0.765544 17.5 0.521973 18.9693 0.521973 19.4596C0.521973 21.5417 1.50097 23.1336 5.54269 23.1336C10.4424 23.1336 13.0133 21.5417 13.0133 16.0307V1.45261H15.9534V0.720321H16.076V0.720321ZM17.3017 19.7032C16.8114 19.7032 16.3211 19.8289 16.076 20.1935C15.7083 20.5612 15.5857 20.9289 15.5857 21.4192C15.5857 21.9063 15.7083 22.2756 16.076 22.6449C16.4437 23.011 16.8114 23.132 17.3017 23.132C17.7904 23.132 18.1581 23.0095 18.5258 22.6449C18.8935 22.2772 19.0161 21.9063 19.0161 21.4192C19.0161 20.9289 18.8935 20.5612 18.5258 20.1935C18.1581 19.8257 17.7904 19.7032 17.3001 19.7032H17.3017ZM37.3877 19.7032C36.8974 19.7032 36.5297 19.8289 36.162 20.1935C35.7958 20.5612 35.6733 20.9289 35.6733 21.4192C35.6733 21.9063 35.7958 22.2756 36.162 22.6449C36.5297 23.011 36.8974 23.132 37.3877 23.132C37.878 23.132 38.3667 23.0095 38.6134 22.6449C38.9795 22.2756 39.1021 21.9063 39.1021 21.4192C39.1021 20.9289 38.9795 20.5612 38.6118 20.1935C38.2441 19.8257 37.878 19.7032 37.3861 19.7032H37.3877ZM31.0171 0.720321H22.1983V1.45418H24.7707V18.6032C24.7707 19.9499 24.6481 20.316 24.5255 20.6837C24.403 21.1756 24.0353 21.4207 23.4224 21.6659C23.0563 21.7885 22.4434 21.9095 21.5854 21.9095V22.6449H31.1397V21.9095C30.2817 21.9095 29.6704 21.7885 29.3011 21.6659C28.6898 21.4207 28.3221 21.053 28.2011 20.6853C28.0376 20.2552 27.954 19.7988 27.9544 19.3386V13.4567H30.2817C37.141 13.4567 39.1005 10.7633 39.1005 7.08775C39.1005 3.29118 37.999 0.71875 31.0171 0.71875V0.720321ZM29.7914 12.6003H27.9544V1.57675H29.5478C34.8137 1.57675 36.0378 3.78146 36.0378 7.21032C36.0378 10.7617 33.9573 12.6003 29.7914 12.6003V12.6003ZM67.3941 20.5612C67.2326 20.0881 67.1497 19.5918 67.149 19.0919V1.45418H69.4747V0.720321H63.8443C63.7217 0.965464 57.1091 17.3775 57.1091 17.3775L56.9865 17.5016C56.864 17.5016 56.864 17.5016 56.864 17.379C56.864 17.379 49.7611 0.842893 49.7611 0.720321H43.51V1.45575H46.205V20.0725C46.205 20.4417 46.0824 20.8095 45.8373 21.1756C45.5921 21.5433 45.2244 21.7885 44.8567 21.9095C44.6115 22.0352 44.1228 22.0352 43.631 22.0352V22.7675H49.7564V22.032C49.2661 22.032 49.021 21.9095 48.6548 21.9095C48.1645 21.7869 47.9194 21.5417 47.6743 21.174C47.4291 20.9289 47.3065 20.5612 47.3065 20.0725L47.184 18.479V3.77989H47.5517C47.5517 3.77989 55.5125 22.3966 55.6351 22.6417H56.248L63.8411 3.90404H64.0863V19.0919C64.0863 19.7047 63.9637 20.1935 63.8411 20.6837C63.7185 21.174 63.3524 21.4192 62.8621 21.6643C62.349 21.8345 61.8108 21.9169 61.2703 21.9079V22.6433H69.844V21.9079C69.3029 21.9169 68.7642 21.8346 68.2505 21.6643C67.8844 21.4192 67.5167 21.0515 67.3941 20.5612V20.5612ZM79.029 6.59903C74.3744 6.59903 71.5584 9.66018 71.5584 14.9276C71.5584 22.7659 77.6823 23.2562 78.9064 23.2562C81.4788 23.2562 86.3786 21.6643 86.3786 14.8066C86.3786 9.41661 83.1933 6.59903 79.029 6.59903V6.59903ZM78.9064 22.2756C75.4775 22.2756 74.8647 20.5627 74.8647 15.0502C74.8647 10.7633 75.1098 7.57804 78.9064 7.57804C82.9481 7.57804 82.9481 10.8843 82.9481 14.8035C82.9481 20.316 81.9691 22.2756 78.9064 22.2756ZM98.3827 6.84418C95.6861 6.84418 94.7087 8.43604 93.9717 10.1505H93.7265C93.7265 10.1505 93.3604 7.70061 93.2378 7.08775H87.8478V7.94575H90.7864V18.7242C90.7864 19.8257 90.6654 20.5627 90.4218 21.0499C90.1751 21.5417 89.4397 21.9079 88.3381 21.9079H87.8478V22.8885H96.9118V21.9079H96.4215C95.1958 21.9079 94.7087 21.6643 94.4604 21.174C94.2168 20.6837 94.0943 19.9483 94.0943 18.8467V12.968C94.0943 11.1295 95.5636 8.92632 97.2796 8.92632C99.1166 8.92632 98.9924 11.6197 101.076 10.5182C102.057 9.90532 101.812 6.84418 98.3827 6.84418V6.84418ZM134.023 21.0499C133.042 21.0499 132.799 20.5627 132.676 19.5822V11.0085C132.676 9.53761 132.429 8.68118 131.574 7.82161C130.716 6.96518 129.123 6.59589 126.797 6.59589C124.593 6.59589 123.001 6.96518 121.898 7.82161C120.919 8.55861 120.43 9.29246 120.43 10.3956C120.43 10.8827 120.552 11.252 120.796 11.3746C121.041 11.6197 121.409 11.7423 121.775 11.7423C122.631 11.7423 123.123 11.2552 123.367 10.1505C123.493 9.29246 123.735 8.80375 124.104 8.31189C124.591 7.82475 125.33 7.57804 126.184 7.57804C127.288 7.57804 128.144 7.82161 128.512 8.43446C128.879 9.04732 129.125 9.78275 129.125 10.7602V13.3342C126.305 13.5793 119.448 14.1906 119.815 19.3355C119.938 21.295 121.654 23.132 123.98 23.132C126.552 23.132 128.142 21.6643 129.244 20.5596C129.368 21.6627 130.47 23.011 132.308 23.011C134.389 23.011 135.615 22.0305 135.739 19.458H135.248C135.248 20.4386 134.636 21.0515 134.023 21.0515V21.0499ZM129.37 19.337V19.4596L129.247 19.5822C127.778 20.9305 126.554 21.4207 125.696 21.4207C123.491 21.4207 123.123 19.5822 123.123 18.7257C123.123 15.7872 127.165 14.3163 129.37 14.3163V19.337V19.337ZM152.396 20.9289C152.151 20.4402 151.783 19.7032 151.783 18.6032V11.4972C151.783 10.5182 151.66 9.53761 151.293 8.92632C150.925 8.19089 150.314 7.70061 149.701 7.33289C148.965 6.96518 148.232 6.84418 147.375 6.84418C144.19 6.84418 142.964 8.80375 142.23 9.90532H141.985L141.372 7.08775H136.473V7.94575H138.924V18.7242C138.924 19.5822 138.8 20.1935 138.677 20.5627C138.553 21.0499 138.19 21.4192 137.821 21.5417C137.576 21.6643 137.085 21.7869 136.473 21.7869V22.7659H144.188V21.7869C143.453 21.6643 142.84 21.5417 142.596 21.174C142.351 20.8063 142.108 20.0709 142.108 18.9693V14.805C142.108 13.0922 142.108 11.3746 142.721 10.3956C143.332 9.29246 144.556 8.68118 145.782 8.68118C147.007 8.68118 147.619 9.04889 147.988 9.78275C148.354 10.3956 148.475 12.2326 148.475 13.4567V18.6016C148.475 19.458 148.601 20.0709 148.475 20.4402C148.354 20.9273 148.232 21.2966 147.862 21.5402C147.619 21.7869 147.127 21.7869 146.638 21.9079V22.8885H154.112V21.9079C153.252 21.5417 152.641 21.295 152.396 20.9289V20.9289ZM117.367 5.86361C116.877 5.98618 116.632 6.47646 116.387 7.08932C116.264 7.70218 116.019 8.06832 115.651 8.18932C115.283 8.31346 114.917 8.31346 114.55 8.06832C113.693 7.33289 112.222 6.47646 109.527 6.47646C105.118 6.47646 103.281 9.53761 103.281 12.3536C103.281 15.6615 104.507 17.2549 107.321 17.8662C107.445 17.8662 107.445 18.1113 107.321 18.1113C104.995 18.6016 102.791 19.337 102.791 21.5417C102.791 22.89 103.526 23.6239 104.629 24.1142C105.729 24.6029 107.321 24.8496 109.282 24.8496C110.995 24.8496 112.221 24.9722 112.956 24.9722C113.694 25.0674 114.404 25.318 115.038 25.7076C115.529 26.0753 115.774 26.6882 115.774 27.4205C115.774 28.5236 115.161 29.259 114.059 29.9945C112.959 30.6073 111.608 30.8525 109.772 30.8525C108.303 30.8525 106.956 30.7283 105.853 29.9945C104.997 29.5042 104.873 28.5252 104.997 27.7897C105.121 27.0543 104.873 26.3205 104.016 26.0753C103.756 26.0179 103.484 26.0465 103.241 26.1571C102.998 26.2676 102.797 26.454 102.67 26.6882C102.423 27.0527 102.3 27.543 102.3 28.1559C102.3 29.9929 103.771 30.8493 104.873 31.217C106.587 31.7057 107.692 31.8299 109.16 31.8299C111.243 31.8299 112.834 31.4622 114.059 30.9719C115.285 30.359 116.02 29.6252 116.509 28.7672C116.998 27.9107 117.245 27.0527 117.245 26.1947C117.245 25.0932 116.998 24.1126 116.509 23.5013C114.917 21.4192 112.711 21.6627 107.813 21.4192C105.486 21.4192 104.995 20.9289 104.995 20.1935C104.995 19.0919 105.853 18.7242 109.282 18.1113C112.711 17.621 115.895 16.2743 115.895 12.2326C115.895 11.0069 115.651 10.0279 115.282 9.29404C116.019 9.41504 116.632 9.41504 117.243 9.29404C117.98 9.04889 118.345 8.68118 118.591 8.31346C118.836 7.82318 118.957 7.33289 118.714 6.96518C118.836 5.98618 118.224 5.61846 117.367 5.86361V5.86361ZM109.651 17.3775C107.571 17.3775 106.466 16.6405 106.466 12.4777C106.466 9.53918 107.447 7.33289 109.651 7.33289C112.224 7.33289 112.958 9.29246 112.958 12.3552C112.958 16.7646 111.611 17.3775 109.651 17.3775Z" fill="#687076"/>
</svg>
