<svg width="98" height="29" viewBox="0 0 98 29" fill="none" xmlns="http://www.w3.org/2000/svg">
<path d="M97.9785 7.89061V28.4649H93.5259V25.9325C92.8209 27.1662 90.8173 28.9658 87.0327 28.9658C83.2481 28.9658 80.2148 26.4984 80.2148 21.8511V7.88133H84.723V20.8214C84.723 23.6042 86.2164 25.0699 88.4334 25.0699C89.1037 25.0627 89.7657 24.922 90.3809 24.6558C90.996 24.3896 91.5518 24.0032 92.0157 23.5194C92.4797 23.0356 92.8424 22.4641 93.0825 21.8384C93.3228 21.2126 93.4357 20.5452 93.4146 19.8753V7.83495H97.9785V7.89061ZM76.022 7.65871C72.8867 7.65871 70.8182 9.32839 70.0668 11.0816V7.89061H65.6422V28.4649H70.1503V18.79C70.1503 14.5972 72.4508 12.3617 75.2985 12.0556C76.0869 11.9498 76.8877 11.9843 77.6639 12.1576V7.83495C77.127 7.6832 76.5706 7.61132 76.0128 7.6216L76.022 7.65871ZM63.351 9.52319C63.351 14.8291 60.0394 18.2427 54.4181 18.2427H47.4055V28.4463H42.6283V0.766602H54.381C60.0023 0.766602 63.3139 4.17091 63.3139 9.52319H63.351ZM58.4532 9.52319C58.4976 8.92469 58.4123 8.32368 58.2033 7.76112C57.9942 7.19857 57.6664 6.6877 57.242 6.26334C56.8177 5.83898 56.3068 5.51112 55.7442 5.3021C55.1817 5.09308 54.5807 5.00782 53.9822 5.05214H47.4055V14.0221H53.9822C54.5848 14.0739 55.1916 13.9937 55.7601 13.7872C56.3286 13.5807 56.8454 13.2529 57.2745 12.8266C57.7035 12.4002 58.0345 11.8855 58.2445 11.3181C58.4545 10.7509 58.5384 10.1447 58.4903 9.54174" fill="#687076"/>
<path d="M0.951172 0.757812H28.668V28.4746H0.951172V0.757812Z" fill="#687076"/>
</svg>
