<svg width="95" height="57" viewBox="0 0 95 57" fill="none" xmlns="http://www.w3.org/2000/svg">
<path d="M41.3158 40.8747C41.3158 43.8461 40.1436 45.5329 34.3289 45.5329C33.5646 45.5329 32.9003 45.4873 32.2386 45.3962V6.09826C32.2386 3.11613 33.2568 0 39.1228 0C39.8897 0 40.6027 0.0670019 41.3158 0.227956V40.8747ZM28.8708 34.9239C28.8708 40.4483 25.2491 44.4897 17.9032 45.2808C12.5476 45.8521 4.79381 45.1842 1.12343 44.7686C0.969524 44.1706 0.866963 43.4277 0.866963 42.8297C0.866963 38.0026 3.46776 36.887 5.96859 36.887C8.51811 36.887 12.5476 37.3483 15.5588 37.3483C18.8214 37.3483 19.8422 36.2435 19.8422 35.1814C19.8422 33.7924 18.5162 33.2157 15.9667 32.7357L8.92591 31.3922C3.11123 30.2792 0 26.2862 0 22.0383C0 16.8572 3.67298 12.5316 10.9163 11.7459C16.3745 11.1479 23.0561 11.8157 26.7291 12.2581C26.8804 12.8803 26.9317 13.4836 26.9317 14.1058C26.9317 18.9383 24.3822 19.9814 21.8813 19.9814C20.0474 19.9814 17.0875 19.6328 13.7224 19.6328C10.3033 19.6328 8.87463 20.5741 8.87463 21.7085C8.87463 22.9126 10.252 23.3953 12.345 23.7842L19.0779 25.0098C25.9134 26.2567 28.8708 30.1425 28.8708 34.9239ZM65.6979 56.0854C66.4649 56.485 67.9936 56.9409 69.984 56.9918C73.3491 57.0562 75.1856 55.7904 76.563 52.7627L94.7227 12.5772C94.0095 12.1858 92.3244 11.7406 90.9471 11.7245C88.6515 11.6736 85.4889 12.1348 83.5011 16.8707L77.6351 30.6439L66.1058 12.0195C65.3414 11.7915 63.5562 11.4724 62.2302 11.4724C58.1494 11.4724 55.8538 12.9501 53.5069 15.4896L42.3366 27.6699L51.3139 41.7356C52.999 44.3074 55.1921 45.6187 58.7111 45.6187C61.058 45.6187 62.9945 45.0877 63.9128 44.6479L53.0991 28.4236L60.7502 20.3167L73.3491 39.9817" fill="#687076"/>
</svg>
