<svg width="124" height="43" viewBox="0 0 124 43" fill="none" xmlns="http://www.w3.org/2000/svg">
<path fill-rule="evenodd" clip-rule="evenodd" d="M123.421 1H82.1489V43H123.421V1ZM114.927 35.683C113.732 35.683 113.056 35.0114 112.536 34.0977L110.566 35.3302C111.278 36.8446 112.732 38 114.983 38C117.286 38 119 36.7123 119 34.3618C119 32.1815 117.837 31.2118 115.778 30.2606L115.172 29.981C114.132 29.4959 113.681 29.1789 113.681 28.3956C113.681 27.762 114.131 27.2769 114.841 27.2769C115.537 27.2769 115.986 27.593 116.401 28.3956L118.289 27.0903C117.49 25.5777 116.382 25 114.841 25C112.676 25 111.291 26.4905 111.291 28.4485C111.291 30.5741 112.453 31.5796 114.202 32.3822L114.808 32.6623C115.914 33.1831 116.573 33.5001 116.573 34.3953C116.573 35.1424 115.932 35.683 114.927 35.683ZM105.533 35.6668C104.7 35.6668 104.354 35.0516 103.973 34.3239L102 35.6105C102.572 36.9134 103.696 37.9952 105.636 37.9952C107.784 37.9952 109.256 36.7648 109.256 34.0615V25.1491H106.832V34.0263C106.832 35.3312 106.33 35.6668 105.533 35.6668Z" fill="#00254D"/>
<path d="M0 0H2.25414V2.31304H4.33187V0H6.58601V7H4.33187V4.66667H2.27374V7H0V0ZM9.56539 2.33333H7.57587V0H13.8189V2.33333H11.8195V7H9.56539V2.33333ZM14.8087 0H17.1707L18.6212 2.46522L20.0716 0H22.4336V7H20.1795V3.53043L18.6016 6.04638L17.0237 3.53043V7H14.8087V0ZM23.5509 0H25.805V4.68696H29V7H23.5509V0Z" fill="#00254D"/>
<path fill-rule="evenodd" clip-rule="evenodd" d="M0 9.20508L2.64483 39.415L14.5145 42.759L26.4323 39.3987L29.0771 9.20508H0ZM6.39591 26.569L5.4021 15.3789H23.6434L23.3068 19.0817H9.39339L9.73 22.8743H22.9782L21.9764 34.2438L14.5589 36.3379L14.5388 36.3644L7.06914 34.2438L6.55621 28.4286H10.2109L10.4673 31.3892L14.5308 32.4963L18.5862 31.3892L19.0109 26.5771H14.5228V26.569H6.39591Z" fill="#00254D"/>
<path d="M46 0H51.5882V2.3H48.3369V4.6H51.5882V6.9H46V0Z" fill="#00254D"/>
<path d="M52.7058 0H58.294V2H55.0427V2.4H58.294V7H52.7058V4.9H55.9571V4.5H52.7058V0Z" fill="#00254D"/>
<path d="M59.4118 0H65V2H61.7487V2.4H65V7H59.4118V4.9H62.6631V4.5H59.4118V0Z" fill="#00254D"/>
<path fill-rule="evenodd" clip-rule="evenodd" d="M67.4233 39.4001L70.0718 9.20654H41L43.6457 39.4049L55.5181 42.7589L67.4233 39.4001ZM64.7175 15.3794H46.4871L46.8179 19.0831H60.729L60.3978 22.8758L47.1425 22.8758L47.4687 26.5794L60.0822 26.5794L59.6597 31.3828L55.6006 32.4981L55.5972 32.499L51.5439 31.3852L51.2848 28.4313H47.6313L48.1412 34.2467L55.5964 36.3528L55.6138 36.3473L63.0617 34.2467L63.9717 23.8703L64.0605 22.8758L64.7175 15.3794Z" fill="#00254D"/>
</svg>
