<svg width="51" height="51" viewBox="0 0 51 51" fill="none" xmlns="http://www.w3.org/2000/svg">
<path d="M25.2667 1.71522C29.9801 1.71522 34.5682 3.11923 38.4543 5.75173C42.2401 8.30902 45.2236 11.9193 47.0036 16.1313C50.1125 23.4772 49.2851 31.8761 44.8224 38.4699C42.2651 42.2557 38.6548 45.2392 34.4428 47.0192C27.0969 50.1281 18.698 49.3007 12.1042 44.838C8.31845 42.2807 5.33495 38.6705 3.55487 34.4585C0.446027 27.1125 1.27338 18.7136 5.73609 12.1199C8.29337 8.33409 11.9037 5.35059 16.1157 3.57052C18.9988 2.34202 22.1328 1.71522 25.2667 1.71522ZM25.2667 0.210938C11.4273 0.210938 0.195312 11.4429 0.195312 25.2823C0.195312 39.1217 11.4273 50.3537 25.2667 50.3537C39.1061 50.3537 50.3381 39.1217 50.3381 25.2823C50.3381 11.4429 39.1061 0.210938 25.2667 0.210938Z" fill="#00254D"/>
<path d="M4.38306 25.2819C4.38306 33.2797 8.94606 40.6005 16.1666 44.0854L6.1882 16.7827C4.98477 19.4653 4.38306 22.3485 4.38306 25.2819ZM39.3828 24.2289C39.3828 21.6465 38.4551 19.8665 37.6528 18.4625C36.8505 17.0585 35.597 15.2785 35.597 13.5736C35.597 11.8687 37.0511 9.86303 39.107 9.86303H39.3828C30.8835 2.06581 17.6709 2.64246 9.8737 11.1667C9.12156 11.9941 8.41956 12.8716 7.81784 13.7992H9.1717C11.3529 13.7992 14.7376 13.5235 14.7376 13.5235C15.8658 13.4482 15.9911 15.103 14.8629 15.2534C14.8629 15.2534 13.7347 15.3787 12.4811 15.454L20.0778 38.0934L24.6408 24.3793L21.3815 15.454C20.2533 15.3787 19.2003 15.2534 19.2003 15.2534C18.0721 15.1782 18.1974 13.4733 19.3256 13.5235C19.3256 13.5235 22.7855 13.7992 24.8163 13.7992C26.847 13.7992 30.3821 13.5235 30.3821 13.5235C31.5103 13.4482 31.6357 15.103 30.5075 15.2534C30.5075 15.2534 29.3793 15.3787 28.1257 15.454L35.6722 37.9179L37.8283 31.0985C38.781 28.115 39.3577 26.009 39.3577 24.2038L39.3828 24.2289ZM25.6185 27.087L19.3507 45.3139C23.5627 46.5424 28.0505 46.4422 32.1873 44.988L32.0368 44.7122L25.6185 27.087ZM43.5948 15.2534C43.695 15.9554 43.7452 16.6825 43.7452 17.4095C43.7452 19.5405 43.344 21.9223 42.1657 24.8807L35.7725 43.3333C45.5503 37.6421 49.0353 25.1816 43.5948 15.2534Z" fill="#00254D"/>
</svg>
