<svg width="92" height="32" viewBox="0 0 92 32" fill="none" xmlns="http://www.w3.org/2000/svg">
<path fill-rule="evenodd" clip-rule="evenodd" d="M10.8489 10.6667H21.6979V0H0.216797V0.108844L10.8489 10.6667Z" fill="#00254D"/>
<path fill-rule="evenodd" clip-rule="evenodd" d="M10.8491 10.6665H0V21.3332H21.4811V21.2243L10.8491 10.6665Z" fill="#00254D"/>
<path fill-rule="evenodd" clip-rule="evenodd" d="M0.108398 21.2246H10.849V32.0001L0.108398 21.2246Z" fill="#00254D"/>
<path d="M39.5866 25.7959C37.3174 25.7959 35.5407 25.2223 34.2565 24.075C32.9724 22.9101 32.3303 21.2863 32.3303 19.2036H36.6049C36.6049 20.2096 36.8688 20.9951 37.3965 21.5599C37.9418 22.1247 38.6807 22.4071 39.613 22.4071C40.4046 22.4071 41.0115 22.2306 41.4336 21.8776C41.8734 21.5246 42.0933 21.0215 42.0933 20.3685C42.0933 19.8037 41.9262 19.3536 41.592 19.0182C41.2753 18.6652 40.6948 18.321 39.8505 17.9857L36.5258 16.6884C34.0278 15.7529 32.7789 14.0673 32.7789 11.6316C32.7789 9.99009 33.3682 8.67514 34.5468 7.68673C35.743 6.69831 37.3437 6.2041 39.3491 6.2041C41.3897 6.2041 43.0256 6.74244 44.257 7.8191C45.4883 8.87812 46.104 10.299 46.104 12.0817H41.8294C41.8294 11.2168 41.6095 10.5549 41.1698 10.096C40.73 9.63708 40.0967 9.40763 39.2699 9.40763C38.5839 9.40763 38.0386 9.57531 37.634 9.91066C37.247 10.2284 37.0535 10.6696 37.0535 11.2344C37.0535 11.7463 37.247 12.1876 37.634 12.5582C38.021 12.9112 38.6719 13.273 39.5866 13.6437L42.6474 14.8616C45.1277 15.8323 46.3679 17.5709 46.3679 20.0772C46.3679 21.807 45.7434 23.1925 44.4945 24.2339C43.2631 25.2753 41.6271 25.7959 39.5866 25.7959Z" fill="#00254D"/>
<path d="M52.5438 10.652C52.0688 11.1285 51.4707 11.3668 50.7495 11.3668C50.0283 11.3668 49.4302 11.1285 48.9552 10.652C48.4978 10.1754 48.2692 9.59296 48.2692 8.9046C48.2692 8.19859 48.4978 7.6073 48.9552 7.13074C49.4302 6.65418 50.0283 6.41591 50.7495 6.41591C51.4707 6.41591 52.0688 6.66301 52.5438 7.15722C53.0187 7.63378 53.2562 8.21624 53.2562 8.9046C53.2562 9.59296 53.0187 10.1754 52.5438 10.652ZM48.7177 25.2664V12.5053H52.7548V25.2664H48.7177Z" fill="#00254D"/>
<path d="M62.7631 22.1158C63.326 22.1158 63.7922 22.0894 64.1616 22.0364V25.2664C63.3876 25.4076 62.4905 25.4782 61.4702 25.4782C61.0128 25.4782 60.6082 25.4518 60.2564 25.3988C59.9046 25.3459 59.5088 25.2311 59.069 25.0546C58.6293 24.8605 58.2686 24.6045 57.9872 24.2868C57.7057 23.9691 57.4595 23.5102 57.2484 22.9101C57.0549 22.31 56.9581 21.604 56.9581 20.7921V15.7088H54.9528V12.5053H56.9581V8.71927H60.9952V12.5053H63.8714V15.7088H60.9952V19.9449C60.9952 20.8097 61.1448 21.3922 61.4438 21.6922C61.7429 21.9746 62.1826 22.1158 62.7631 22.1158Z" fill="#00254D"/>
<path d="M78.979 18.224C78.979 18.7535 78.9438 19.3448 78.8735 19.9978H69.4799C69.5151 20.8274 69.7965 21.4716 70.3243 21.9305C70.852 22.3894 71.5644 22.6189 72.4616 22.6189C73.6929 22.6189 74.4845 22.2218 74.8364 21.4275H78.7943C78.6008 22.6807 77.9148 23.7044 76.7362 24.4986C75.5752 25.2753 74.1503 25.6636 72.4616 25.6636C70.2979 25.6636 68.5916 25.0635 67.3426 23.8632C66.0937 22.663 65.4692 21.0039 65.4692 18.8858C65.4692 16.8031 66.0937 15.1616 67.3426 13.9614C68.5916 12.7435 70.2539 12.1346 72.3297 12.1346C74.2998 12.1346 75.9006 12.6994 77.132 13.829C78.3633 14.9587 78.979 16.4236 78.979 18.224ZM69.4799 17.4826H74.9947C74.9771 16.6354 74.7396 15.9824 74.2822 15.5235C73.8249 15.0646 73.1652 14.8351 72.3033 14.8351C71.4413 14.8351 70.7553 15.0822 70.2451 15.5764C69.7526 16.053 69.4975 16.6884 69.4799 17.4826Z" fill="#00254D"/>
<path d="M86.4326 25.6636C84.6031 25.6636 83.1431 25.2664 82.0524 24.4722C80.9618 23.6779 80.4165 22.663 80.4165 21.4275H84.4272C84.4272 21.8687 84.6207 22.2306 85.0077 22.513C85.3947 22.7954 85.896 22.9366 86.5117 22.9366C86.9515 22.9366 87.3033 22.8307 87.5672 22.6189C87.8486 22.4071 87.9894 22.1159 87.9894 21.7452C87.9894 21.1627 87.6815 20.8009 87.0658 20.6597L83.9522 19.8654C82.9144 19.6007 82.1228 19.1506 81.5775 18.5152C81.0321 17.8798 80.7595 17.1032 80.7595 16.1853C80.7595 14.9851 81.252 14.0144 82.2371 13.273C83.2222 12.5141 84.5415 12.1346 86.1951 12.1346C88.0245 12.1346 89.423 12.4876 90.3905 13.1936C91.3756 13.8996 91.8682 14.8704 91.8682 16.1059H87.8838C87.8838 15.6647 87.7255 15.3205 87.4089 15.0734C87.1098 14.8263 86.6876 14.7027 86.1423 14.7027C85.7025 14.7027 85.3507 14.7998 85.0869 14.994C84.823 15.1881 84.6911 15.444 84.6911 15.7617C84.6911 16.3265 85.0517 16.706 85.7729 16.9002L88.781 17.7209C89.7836 17.9857 90.5664 18.4269 91.1293 19.0447C91.7098 19.6448 92.0001 20.3861 92.0001 21.2686C92.0001 22.5924 91.4988 23.6603 90.4961 24.4722C89.511 25.2664 88.1565 25.6636 86.4326 25.6636Z" fill="#00254D"/>
</svg>
