<svg width="124" height="26" viewBox="0 0 124 26" fill="none" xmlns="http://www.w3.org/2000/svg">
<path d="M41.2268 17.068H45.5084C45.5728 18.1274 46.3466 19.1215 48.1005 19.1215C49.7126 19.1215 50.5379 18.546 50.5379 17.6697C50.5379 15.0147 41.8845 17.5128 41.8845 11.2479C41.8845 8.38353 44.2961 6.0293 48.1392 6.0293C52.8078 6.0293 54.4198 9.05058 54.5358 11.3656H50.4606C50.3703 10.3716 49.6224 9.4691 48.1134 9.4691C46.7465 9.4691 45.9727 10.1361 45.9727 11.0124C45.9727 13.6675 54.6003 11.0124 54.6003 17.4996C54.6003 20.3378 52.2145 22.5743 47.9973 22.5743C43.0968 22.5613 41.4331 20.024 41.2268 17.068Z" fill="#00254D"/>
<path d="M60.1328 6.38275V2.70752H55.9028V22.1954H60.1328V9.87487H63.2408V6.38275H60.1328Z" fill="#00254D"/>
<path d="M66.71 15.5251C67.0067 17.6962 68.3736 18.8734 70.4887 18.8734C71.7655 18.8734 72.9905 18.2978 73.4936 17.147H77.7493C76.8209 20.3513 73.9706 22.5486 70.3726 22.5486C65.7557 22.5486 62.5188 19.1088 62.5188 14.2564C62.5188 9.57412 65.7299 6.0166 70.3468 6.0166C74.9637 6.0166 78.0846 9.57412 78.0846 14.2564C78.0846 14.9496 78.0202 15.5251 78.0202 15.5251H66.71ZM66.7616 12.4515H73.8418C73.5451 10.6728 72.2684 9.46948 70.2953 9.46948C68.3736 9.46948 67.1228 10.6466 66.7616 12.4515Z" fill="#00254D"/>
<path d="M83.5399 8.31814C84.2492 6.95791 85.8612 6.0293 88.1826 6.0293C91.9354 6.0293 93.9215 8.56665 93.9215 12.3334V22.1951H89.6914V12.8043C89.6914 10.9601 88.9176 9.69145 87.0477 9.69145C84.9972 9.69145 83.8623 11.0255 83.8623 13.1312V22.182H79.6323V6.38243H83.5399V8.31814Z" fill="#00254D"/>
<path d="M103.31 6.0293C108.159 6.0293 110.454 9.49527 110.751 12.1896H106.405C106.083 10.8293 104.832 9.83532 103.284 9.83532C101.027 9.83532 99.7117 11.6402 99.7117 14.2953C99.7117 16.9504 101.027 18.7553 103.284 18.7553C104.832 18.7553 106.083 17.7612 106.405 16.401H110.751C110.454 19.0823 108.159 22.5613 103.31 22.5613C98.7832 22.5613 95.4817 19.0037 95.4817 14.2953C95.4817 9.58681 98.7832 6.0293 103.31 6.0293Z" fill="#00254D"/>
<path d="M111.873 2.58967C111.873 1.08557 112.943 0 114.426 0C115.909 0 116.98 1.08557 116.98 2.58967C116.98 4.09375 115.909 5.15316 114.426 5.15316C112.956 5.15316 111.873 4.10684 111.873 2.58967ZM112.324 6.3826H116.554V22.1953H112.324V6.3826Z" fill="#00254D"/>
<path d="M118.811 22.1953V0.994141H123.041V22.1953H118.811Z" fill="#00254D"/>
<path d="M12.5759 18.2856H25.3858L18.4613 26H5.72046L12.5759 18.2856Z" fill="#00254D"/>
<path d="M33.5567 9.14307H7.24034L0.31958 16.8573H26.636L33.5567 9.14307Z" fill="#00254D"/>
<path d="M15.3929 0H28.1555L21.263 7.71429H8.49023L15.3929 0Z" fill="#00254D"/>
</svg>
