<svg width="54" height="58" viewBox="0 0 54 58" fill="none" xmlns="http://www.w3.org/2000/svg">
<path fill-rule="evenodd" clip-rule="evenodd" d="M3.99007 26.036C2.82832 27.0837 2.34783 28.0873 2.34783 29.0001C2.34783 29.9129 2.82832 30.9165 3.99007 31.9643C5.15169 33.0119 6.8985 34.0091 9.15693 34.8706C13.6657 36.5906 19.9739 37.679 27 37.679C34.0261 37.679 40.3343 36.5906 44.8431 34.8706C47.1015 34.0091 48.8483 33.0119 50.0099 31.9643C51.1717 30.9165 51.6522 29.9129 51.6522 29.0001C51.6522 28.0873 51.1717 27.0837 50.0099 26.036C48.8483 24.9883 47.1015 23.9911 44.8431 23.1296C40.3343 21.4096 34.0261 20.3212 27 20.3212C19.9739 20.3212 13.6657 21.4096 9.15693 23.1296C6.8985 23.9911 5.15169 24.9883 3.99007 26.036ZM8.31946 20.9382C13.1579 19.0926 19.7628 17.9756 27 17.9756C34.2372 17.9756 40.8421 19.0926 45.6805 20.9382C48.0957 21.8595 50.131 22.9852 51.5832 24.2948C53.0352 25.6043 54 27.1924 54 29.0001C54 30.8078 53.0352 32.3959 51.5832 33.7054C50.131 35.015 48.0957 36.1407 45.6805 37.062C40.8421 38.9076 34.2372 40.0246 27 40.0246C19.7628 40.0246 13.1579 38.9076 8.31946 37.062C5.9043 36.1407 3.86896 35.015 2.41684 33.7054C0.964844 32.3959 0 30.8078 0 29.0001C0 27.1924 0.964844 25.6043 2.41684 24.2948C3.86896 22.9852 5.9043 21.8595 8.31946 20.9382Z" fill="#00254D"/>
<path fill-rule="evenodd" clip-rule="evenodd" d="M18.0647 7.60942C16.5756 7.12813 15.4654 7.21422 14.6742 7.6706C13.8829 8.12698 13.2532 9.04453 12.9259 10.5736C12.5985 12.1025 12.6075 14.1124 12.9899 16.4972C13.7534 21.2583 15.9641 27.2605 19.4771 33.3396C22.9902 39.4187 27.0877 44.3324 30.833 47.3736C32.709 48.8969 34.4468 49.9096 35.9358 50.3909C37.4249 50.8722 38.5351 50.7861 39.3263 50.3297C40.1175 49.8733 40.7473 48.9558 41.0746 47.4267C41.4019 45.8978 41.393 43.8879 41.0105 41.5031C40.247 36.742 38.0364 30.7398 34.5234 24.6607C31.0103 18.5816 26.9128 13.6678 23.1675 10.6267C21.2915 9.10342 19.5536 8.09066 18.0647 7.60942ZM24.6483 8.80644C28.6673 12.0699 32.938 17.2261 36.5566 23.4879C40.1753 29.7497 42.5095 36.0229 43.3288 41.132C43.7378 43.6823 43.7797 46.0061 43.3705 47.9173C42.9614 49.8284 42.0672 51.4572 40.5002 52.3611C38.9333 53.2649 37.0743 53.2242 35.2131 52.6226C33.3518 52.021 31.3584 50.8229 29.3522 49.1939C25.3331 45.9304 21.0625 40.7742 17.4438 34.5124C13.8252 28.2506 11.491 21.9774 10.6717 16.8683C10.2627 14.318 10.2208 11.9942 10.63 10.083C11.0391 8.1719 11.9333 6.54307 13.5002 5.63921C15.0672 4.73536 16.9262 4.77613 18.7874 5.37766C20.6487 5.97925 22.6421 7.17744 24.6483 8.80644Z" fill="#00254D"/>
<path fill-rule="evenodd" clip-rule="evenodd" d="M41.0746 10.5735C40.7473 9.04443 40.1175 8.12687 39.3263 7.67049C38.5351 7.21412 37.4249 7.12803 35.9358 7.60932C34.4468 8.09056 32.709 9.10331 30.833 10.6266C27.0877 13.6677 22.9902 18.5815 19.4771 24.6606C15.9641 30.7397 13.7534 36.7419 12.9899 41.5029C12.6075 43.8877 12.5985 45.8977 12.9259 47.4266C13.2532 48.9557 13.8829 49.8732 14.6742 50.3296C15.4654 50.786 16.5756 50.872 18.0647 50.3908C19.5536 49.9095 21.2915 48.8968 23.1675 47.3735C26.9128 44.3323 31.0103 39.4186 34.5234 33.3395C38.0364 27.2603 40.247 21.2582 41.0105 16.4971C41.393 14.1123 41.4019 12.1023 41.0746 10.5735ZM43.3288 16.8682C42.5095 21.9773 40.1753 28.2505 36.5566 34.5123C32.938 40.7741 28.6673 45.9303 24.6483 49.1937C22.6421 50.8227 20.6487 52.0209 18.7874 52.6225C16.9262 53.2241 15.0672 53.2648 13.5002 52.361C11.9333 51.4571 11.0391 49.8283 10.63 47.9172C10.2208 46.006 10.2627 43.6822 10.6717 41.1319C11.491 36.0228 13.8252 29.7496 17.4438 23.4878C21.0625 17.226 25.3331 12.0698 29.3522 8.80634C31.3584 7.17734 33.3518 5.97914 35.2131 5.37756C37.0743 4.77603 38.9333 4.73525 40.5002 5.63911C42.0672 6.54297 42.9614 8.1718 43.3705 10.0829C43.7797 11.9941 43.7378 14.3179 43.3288 16.8682Z" fill="#00254D"/>
<path d="M27.0001 33.8085C29.6582 33.8085 31.8131 31.6557 31.8131 29C31.8131 26.3443 29.6582 24.1914 27.0001 24.1914C24.3419 24.1914 22.187 26.3443 22.187 29C22.187 31.6557 24.3419 33.8085 27.0001 33.8085Z" fill="#00254D"/>
</svg>
