<svg width="80" height="48" viewBox="0 0 80 48" fill="none" xmlns="http://www.w3.org/2000/svg">
<path d="M19.2805 12.5306H34.0761V13.7141H20.6371V22.6202H33.2746V23.8037H20.6371V33.5818H34.2302V34.7653H19.2805V12.5306V12.5306ZM35.4014 12.5306H36.9736L43.9399 22.3088L51.0601 12.5306L60.7449 0.110352L44.8338 23.3365L53.0329 34.7653H51.399L43.9399 24.3642L36.4499 34.7653H34.8468L43.1075 23.3365L35.4019 12.5306H35.4014ZM53.6188 13.7141V12.5306H70.479V13.7141H62.7118V34.7648H61.3552V13.7141H53.6193H53.6188ZM0.770996 12.5306H2.46648L25.8436 47.7322L16.1828 34.7653L2.18868 14.2122L2.12706 34.7653H0.770996V12.5306V12.5306ZM70.343 33.2245C70.0652 33.2245 69.8575 33.0085 69.8575 32.7296C69.8575 32.4501 70.0652 32.2341 70.3425 32.2341C70.6229 32.2341 70.8274 32.4501 70.8274 32.7296C70.8274 33.0085 70.6229 33.2245 70.3425 33.2245H70.343ZM71.6752 31.9216H72.4013C72.4114 32.3173 72.6987 32.5829 73.1205 32.5829C73.5922 32.5829 73.8593 32.2976 73.8593 31.7621V28.3722H74.5982V31.7653C74.5982 32.7296 74.0442 33.2848 73.1269 33.2848C72.2664 33.2848 71.6757 32.7461 71.6757 31.9216H71.6752ZM75.5644 31.8789H76.2969C76.3595 32.3338 76.8015 32.6229 77.4383 32.6229C78.0316 32.6229 78.4672 32.3136 78.4672 31.8885C78.4672 31.5232 78.1905 31.3034 77.56 31.1541L76.9465 31.0048C76.086 30.8021 75.6929 30.3829 75.6929 29.6784C75.6929 28.824 76.3856 28.2554 77.4245 28.2554C78.3912 28.2554 79.0977 28.824 79.1402 29.6314H78.421C78.3519 29.1898 77.9695 28.9136 77.415 28.9136C76.8307 28.9136 76.4419 29.1962 76.4419 29.6282C76.4419 29.9706 76.6926 30.1669 77.313 30.313L77.8372 30.4426C78.8135 30.672 79.2161 31.0709 79.2161 31.792C79.2161 32.7093 78.5097 33.2848 77.382 33.2848C76.3266 33.2848 75.617 32.736 75.5644 31.8784V31.8789Z" fill="black"/>
</svg>
