<svg width="100" height="26" viewBox="0 0 100 26" fill="none" xmlns="http://www.w3.org/2000/svg">
<path d="M32.29 10.2762C32.29 8.49311 30.5456 6.59936 27.5269 6.59936C24.1371 6.59936 20.4132 9.07108 19.8441 14.0022C19.2626 18.9825 22.3803 21.196 25.5227 21.196C28.6651 21.196 30.3105 19.9786 31.9931 18.3554C30.5456 16.5477 28.6775 17.3839 28.3187 17.5684C27.9228 17.7651 27.4156 18.0357 26.3763 18.0357C25.1639 18.0357 23.9268 17.4946 23.9268 15.2442C31.6962 14.4818 32.29 12.0593 32.29 10.2762ZM28.4424 10.5713C28.3929 11.1247 28.1702 12.0716 24.2361 12.6003C25.065 9.67364 26.6485 9.45229 27.3784 9.45229C28.0589 9.45229 28.4919 9.98106 28.4424 10.5713ZM15.279 11.0509C15.279 11.0509 13.6088 16.2649 13.4727 16.6953C13.4232 16.2526 12.1984 6.89449 12.1984 6.89449C9.35296 6.89449 7.83125 8.91121 7.02709 11.0386C7.02709 11.0386 4.99814 16.2649 4.82494 16.7076C4.81257 16.3018 4.51565 11.1001 4.51565 11.1001C4.34245 8.49311 1.94235 6.90679 0 6.90679L2.35061 21.0853C5.33218 21.073 6.94049 19.0686 7.78176 16.9412C7.78176 16.9412 9.57565 12.3298 9.64988 12.1208C9.66225 12.3175 10.9365 21.0853 10.9365 21.0853C13.9305 21.0853 15.5388 19.2039 16.4048 17.1503L20.5988 6.90679C17.642 6.90679 16.0831 8.91122 15.279 11.0509V11.0509ZM43.276 6.57477C41.4326 6.57477 40.0223 7.57083 38.8346 9.03419V9.02189L39.8986 0.5C37.449 0.5 35.4571 2.6151 35.0736 5.76316L33.2179 20.9747C34.6282 20.9747 36.1252 20.5689 36.9294 19.5359C37.6469 20.4582 38.7232 21.196 40.3192 21.196C44.4513 21.196 47.2844 16.4247 47.2844 11.9486C47.2597 7.86596 45.2678 6.57477 43.276 6.57477V6.57477ZM42.8925 13.8915C42.4595 16.3879 41.0615 18.0848 39.713 18.0848C38.3521 18.0848 37.7706 17.4823 37.7706 17.4823C38.0304 15.2934 38.1913 13.953 38.6861 12.7971C39.181 11.6412 40.3563 9.79661 41.5811 9.79661C42.7811 9.79661 43.3255 11.3829 42.8925 13.8915V13.8915ZM57.6024 6.90679H54.7198L54.7322 6.75922C54.9301 4.89006 55.3755 3.9063 56.8477 3.74643C57.8498 3.64806 58.2952 3.13158 58.4065 2.56591C58.4931 2.12322 58.7653 0.58608 58.7653 0.58608C52.9754 0.549188 51.1568 3.0332 50.6866 6.82071L50.6743 6.90679H50.6124C49.6722 6.90679 48.6329 7.96434 48.4597 9.30472L48.3979 9.79661H50.3278L48.7072 23.1021L48.2123 25.4877C48.2742 25.4877 48.3484 25.5 48.4102 25.5C51.1196 25.4016 52.8517 23.2742 53.2352 20.1877L54.4971 9.79661H55.4002C56.291 9.79661 57.3302 8.91121 57.5158 7.43556L57.6024 6.90679V6.90679ZM72.5968 6.66085C69.2688 6.66085 66.1264 9.09567 65.1615 12.9201C64.1965 16.7445 65.6563 21.2698 70.5555 21.2698C75.4423 21.2698 78.263 16.56 78.263 12.6372C78.263 8.73905 75.6031 6.66085 72.5968 6.66085V6.66085ZM73.9453 13.7686C73.7721 15.5025 73.0051 18.134 70.9019 18.134C68.7863 18.134 69.0833 15.0598 69.2936 13.5964C69.5163 12.0347 70.3947 9.8089 72.2875 9.8089C73.9824 9.8089 74.1433 11.8133 73.9453 13.7686ZM94.7049 11.0509C94.7049 11.0509 93.0348 16.2649 92.8987 16.6953C92.8492 16.2526 91.6244 6.89449 91.6244 6.89449C88.7789 6.89449 87.2572 8.91121 86.453 11.0386C86.453 11.0386 84.4241 16.2649 84.2509 16.7076C84.2385 16.3018 83.9416 11.1001 83.9416 11.1001C83.7684 8.49311 81.3683 6.90679 79.426 6.90679L81.7642 21.0853C84.7458 21.073 86.3541 19.0686 87.1953 16.9412C87.1953 16.9412 88.9892 12.3298 89.0511 12.1208C89.0758 12.3175 90.3377 21.0853 90.3377 21.0853C93.3317 21.0853 94.94 19.2039 95.806 17.1503L100 6.90679C97.0555 6.90679 95.4967 8.91122 94.7049 11.0509V11.0509ZM60.3241 0.58608L57.8993 20.0278L57.4044 22.4257C57.4663 22.4257 57.5405 22.438 57.6024 22.438C60.2128 22.4011 62.0685 20.1262 62.4149 17.2609L63.8129 6.10748C64.2336 2.70118 62.1923 0.58608 60.3241 0.58608Z" fill="#00254D"/>
</svg>
