<svg width="12" height="12" viewBox="0 0 12 12" fill="none" xmlns="http://www.w3.org/2000/svg">
<g clip-path="url(#clip0_216_2137)">
<path d="M11.2864 6.75H9.70582C9.60859 7.21998 9.42123 7.66683 9.15404 8.066L10.2736 9.182C10.4107 9.32345 10.4865 9.5129 10.4848 9.70955C10.4831 9.9062 10.404 10.0943 10.2645 10.2334C10.125 10.3724 9.93626 10.4513 9.73897 10.453C9.54169 10.4547 9.35162 10.3791 9.20971 10.2425L8.09211 9.1265C7.69164 9.39283 7.24335 9.57959 6.77185 9.6765V11.25C6.77185 11.4489 6.69258 11.6397 6.55147 11.7803C6.41036 11.921 6.21898 12 6.01942 12C5.81987 12 5.62848 11.921 5.48737 11.7803C5.34627 11.6397 5.26699 11.4489 5.26699 11.25V9.6745C4.79549 9.57758 4.3472 9.39083 3.94673 9.1245L2.82712 10.2425C2.68521 10.3791 2.49515 10.4547 2.29786 10.453C2.10058 10.4513 1.91186 10.3724 1.77235 10.2334C1.63285 10.0943 1.55372 9.9062 1.552 9.70955C1.55029 9.5129 1.62613 9.32345 1.76319 9.182L2.8828 8.066C2.61561 7.66683 2.42825 7.21998 2.33102 6.75H0.752428C0.552871 6.75 0.361489 6.67098 0.220381 6.53033C0.0792734 6.38968 0 6.19891 0 6C0 5.80109 0.0792734 5.61032 0.220381 5.46967C0.361489 5.32902 0.552871 5.25 0.752428 5.25H2.33303C2.43026 4.78002 2.61761 4.33317 2.88481 3.934L1.76319 2.818C1.62613 2.67655 1.55029 2.4871 1.552 2.29045C1.55372 2.0938 1.63285 1.90569 1.77235 1.76664C1.91186 1.62758 2.10058 1.5487 2.29786 1.54699C2.49515 1.54529 2.68521 1.62088 2.82712 1.7575L3.94673 2.8735C4.3472 2.60717 4.79549 2.42041 5.26699 2.3235V0.75C5.26699 0.551088 5.34627 0.360323 5.48737 0.21967C5.62848 0.079018 5.81987 0 6.01942 0C6.21898 0 6.41036 0.079018 6.55147 0.21967C6.69258 0.360323 6.77185 0.551088 6.77185 0.75V2.3255C7.24335 2.42241 7.69164 2.60917 8.09211 2.8755L9.21172 1.7595C9.35363 1.62288 9.5437 1.54729 9.74098 1.54899C9.93826 1.5507 10.127 1.62958 10.2665 1.76864C10.406 1.90769 10.4851 2.0958 10.4868 2.29245C10.4886 2.4891 10.4127 2.67855 10.2757 2.82L9.15604 3.936C9.42324 4.33517 9.61059 4.78202 9.70782 5.252H11.2864C11.479 5.26192 11.6604 5.34516 11.7932 5.48454C11.926 5.62392 12 5.80879 12 6.001C12 6.19321 11.926 6.37808 11.7932 6.51746C11.6604 6.65684 11.479 6.74008 11.2864 6.75V6.75ZM6.01942 3.75C5.42075 3.75 4.8466 3.98705 4.42328 4.40901C3.99996 4.83097 3.76214 5.40326 3.76214 6C3.76214 6.59674 3.99996 7.16903 4.42328 7.59099C4.8466 8.01295 5.42075 8.25 6.01942 8.25C6.61809 8.25 7.19224 8.01295 7.61556 7.59099C8.03888 7.16903 8.2767 6.59674 8.2767 6C8.2767 5.40326 8.03888 4.83097 7.61556 4.40901C7.19224 3.98705 6.61809 3.75 6.01942 3.75Z" fill="#EFD36C"/>
</g>
<defs>
<clipPath id="clip0_216_2137">
<rect width="12" height="12" fill="white" transform="matrix(1 0 0 -1 0 12)"/>
</clipPath>
</defs>
</svg>
